<mxfile host="app.diagrams.net" modified="2022-11-14T02:45:19.594Z" agent="5.0 (Windows NT 10.0; Win64; x64) AppleWebKit/537.36 (KHTML, like Gecko) Chrome/107.0.0.0 Safari/537.36" etag="brrcto6jtD35Jvy0m69U" version="20.5.1" type="github">
  <diagram id="KU-olh9_EunU25e2tUOI" name="第 1 页">
    <mxGraphModel dx="3212" dy="1285" grid="1" gridSize="10" guides="1" tooltips="1" connect="1" arrows="1" fold="1" page="1" pageScale="1" pageWidth="827" pageHeight="1169" math="0" shadow="0">
      <root>
        <mxCell id="0" />
        <mxCell id="1" parent="0" />
        <mxCell id="YmlekW7UCMXkX2L6uJOz-54" value="" style="group" parent="1" vertex="1" connectable="0">
          <mxGeometry x="-10" y="150" width="310" height="120" as="geometry" />
        </mxCell>
        <mxCell id="YmlekW7UCMXkX2L6uJOz-25" value="" style="shape=parallelogram;html=1;strokeWidth=2;perimeter=parallelogramPerimeter;whiteSpace=wrap;rounded=1;arcSize=12;size=0.23;" parent="YmlekW7UCMXkX2L6uJOz-54" vertex="1">
          <mxGeometry width="310" height="120" as="geometry" />
        </mxCell>
        <mxCell id="YmlekW7UCMXkX2L6uJOz-26" value="" style="ellipse;whiteSpace=wrap;html=1;fillColor=#dae8fc;strokeColor=#6c8ebf;" parent="YmlekW7UCMXkX2L6uJOz-54" vertex="1">
          <mxGeometry x="80" y="10" width="40" height="30" as="geometry" />
        </mxCell>
        <mxCell id="YmlekW7UCMXkX2L6uJOz-27" value="" style="ellipse;whiteSpace=wrap;html=1;fillColor=#dae8fc;strokeColor=#6c8ebf;" parent="YmlekW7UCMXkX2L6uJOz-54" vertex="1">
          <mxGeometry x="150" y="30" width="40" height="30" as="geometry" />
        </mxCell>
        <mxCell id="YmlekW7UCMXkX2L6uJOz-41" style="edgeStyle=none;rounded=0;orthogonalLoop=1;jettySize=auto;html=1;exitX=1;exitY=1;exitDx=0;exitDy=0;entryX=0;entryY=0.5;entryDx=0;entryDy=0;endArrow=none;endFill=0;" parent="YmlekW7UCMXkX2L6uJOz-54" source="YmlekW7UCMXkX2L6uJOz-26" target="YmlekW7UCMXkX2L6uJOz-27" edge="1">
          <mxGeometry relative="1" as="geometry" />
        </mxCell>
        <mxCell id="YmlekW7UCMXkX2L6uJOz-28" value="" style="ellipse;whiteSpace=wrap;html=1;fillColor=#dae8fc;strokeColor=#6c8ebf;" parent="YmlekW7UCMXkX2L6uJOz-54" vertex="1">
          <mxGeometry x="210" y="10" width="40" height="30" as="geometry" />
        </mxCell>
        <mxCell id="YmlekW7UCMXkX2L6uJOz-73" style="edgeStyle=none;rounded=0;orthogonalLoop=1;jettySize=auto;html=1;exitX=1;exitY=0.5;exitDx=0;exitDy=0;fontSize=17;endArrow=none;endFill=0;" parent="YmlekW7UCMXkX2L6uJOz-54" source="YmlekW7UCMXkX2L6uJOz-29" target="YmlekW7UCMXkX2L6uJOz-30" edge="1">
          <mxGeometry relative="1" as="geometry" />
        </mxCell>
        <mxCell id="YmlekW7UCMXkX2L6uJOz-29" value="" style="ellipse;whiteSpace=wrap;html=1;fillColor=#dae8fc;strokeColor=#6c8ebf;" parent="YmlekW7UCMXkX2L6uJOz-54" vertex="1">
          <mxGeometry x="50" y="70" width="40" height="30" as="geometry" />
        </mxCell>
        <mxCell id="YmlekW7UCMXkX2L6uJOz-42" style="edgeStyle=none;rounded=0;orthogonalLoop=1;jettySize=auto;html=1;exitX=1;exitY=0;exitDx=0;exitDy=0;entryX=0;entryY=1;entryDx=0;entryDy=0;endArrow=none;endFill=0;" parent="YmlekW7UCMXkX2L6uJOz-54" source="YmlekW7UCMXkX2L6uJOz-30" target="YmlekW7UCMXkX2L6uJOz-27" edge="1">
          <mxGeometry relative="1" as="geometry" />
        </mxCell>
        <mxCell id="YmlekW7UCMXkX2L6uJOz-30" value="" style="ellipse;whiteSpace=wrap;html=1;fillColor=#dae8fc;strokeColor=#6c8ebf;" parent="YmlekW7UCMXkX2L6uJOz-54" vertex="1">
          <mxGeometry x="110" y="70" width="40" height="30" as="geometry" />
        </mxCell>
        <mxCell id="YmlekW7UCMXkX2L6uJOz-44" style="edgeStyle=none;rounded=0;orthogonalLoop=1;jettySize=auto;html=1;exitX=0;exitY=0;exitDx=0;exitDy=0;entryX=1;entryY=0.5;entryDx=0;entryDy=0;endArrow=none;endFill=0;" parent="YmlekW7UCMXkX2L6uJOz-54" source="YmlekW7UCMXkX2L6uJOz-31" target="YmlekW7UCMXkX2L6uJOz-27" edge="1">
          <mxGeometry relative="1" as="geometry" />
        </mxCell>
        <mxCell id="YmlekW7UCMXkX2L6uJOz-31" value="" style="ellipse;whiteSpace=wrap;html=1;fillColor=#dae8fc;strokeColor=#6c8ebf;" parent="YmlekW7UCMXkX2L6uJOz-54" vertex="1">
          <mxGeometry x="210" y="50" width="40" height="30" as="geometry" />
        </mxCell>
        <mxCell id="YmlekW7UCMXkX2L6uJOz-45" style="edgeStyle=none;rounded=0;orthogonalLoop=1;jettySize=auto;html=1;exitX=0.5;exitY=1;exitDx=0;exitDy=0;entryX=0.5;entryY=0;entryDx=0;entryDy=0;endArrow=none;endFill=0;" parent="YmlekW7UCMXkX2L6uJOz-54" source="YmlekW7UCMXkX2L6uJOz-28" target="YmlekW7UCMXkX2L6uJOz-31" edge="1">
          <mxGeometry relative="1" as="geometry" />
        </mxCell>
        <mxCell id="YmlekW7UCMXkX2L6uJOz-46" style="edgeStyle=none;rounded=0;orthogonalLoop=1;jettySize=auto;html=1;exitX=1;exitY=0;exitDx=0;exitDy=0;entryX=0.34;entryY=0.94;entryDx=0;entryDy=0;entryPerimeter=0;endArrow=none;endFill=0;" parent="YmlekW7UCMXkX2L6uJOz-54" source="YmlekW7UCMXkX2L6uJOz-32" target="YmlekW7UCMXkX2L6uJOz-31" edge="1">
          <mxGeometry relative="1" as="geometry" />
        </mxCell>
        <mxCell id="YmlekW7UCMXkX2L6uJOz-32" value="" style="ellipse;whiteSpace=wrap;html=1;fillColor=#dae8fc;strokeColor=#6c8ebf;" parent="YmlekW7UCMXkX2L6uJOz-54" vertex="1">
          <mxGeometry x="180" y="80" width="40" height="30" as="geometry" />
        </mxCell>
        <mxCell id="YmlekW7UCMXkX2L6uJOz-55" value="" style="group" parent="1" vertex="1" connectable="0">
          <mxGeometry x="-30" y="310" width="310" height="120" as="geometry" />
        </mxCell>
        <mxCell id="YmlekW7UCMXkX2L6uJOz-33" value="" style="shape=parallelogram;html=1;strokeWidth=2;perimeter=parallelogramPerimeter;whiteSpace=wrap;rounded=1;arcSize=12;size=0.23;" parent="YmlekW7UCMXkX2L6uJOz-55" vertex="1">
          <mxGeometry width="310" height="120" as="geometry" />
        </mxCell>
        <mxCell id="YmlekW7UCMXkX2L6uJOz-34" value="" style="ellipse;whiteSpace=wrap;html=1;fillColor=#f8cecc;strokeColor=#b85450;" parent="YmlekW7UCMXkX2L6uJOz-55" vertex="1">
          <mxGeometry x="80" y="10" width="40" height="30" as="geometry" />
        </mxCell>
        <mxCell id="YmlekW7UCMXkX2L6uJOz-35" value="" style="ellipse;whiteSpace=wrap;html=1;fillColor=#f8cecc;strokeColor=#b85450;" parent="YmlekW7UCMXkX2L6uJOz-55" vertex="1">
          <mxGeometry x="150" y="30" width="40" height="30" as="geometry" />
        </mxCell>
        <mxCell id="YmlekW7UCMXkX2L6uJOz-47" style="edgeStyle=none;rounded=0;orthogonalLoop=1;jettySize=auto;html=1;exitX=1;exitY=1;exitDx=0;exitDy=0;entryX=0;entryY=0.5;entryDx=0;entryDy=0;endArrow=none;endFill=0;" parent="YmlekW7UCMXkX2L6uJOz-55" source="YmlekW7UCMXkX2L6uJOz-34" target="YmlekW7UCMXkX2L6uJOz-35" edge="1">
          <mxGeometry relative="1" as="geometry" />
        </mxCell>
        <mxCell id="YmlekW7UCMXkX2L6uJOz-36" value="" style="ellipse;whiteSpace=wrap;html=1;fillColor=#f8cecc;strokeColor=#b85450;" parent="YmlekW7UCMXkX2L6uJOz-55" vertex="1">
          <mxGeometry x="210" y="10" width="40" height="30" as="geometry" />
        </mxCell>
        <mxCell id="YmlekW7UCMXkX2L6uJOz-53" style="edgeStyle=none;rounded=0;orthogonalLoop=1;jettySize=auto;html=1;exitX=1;exitY=0;exitDx=0;exitDy=0;entryX=0;entryY=0.5;entryDx=0;entryDy=0;endArrow=none;endFill=0;" parent="YmlekW7UCMXkX2L6uJOz-55" source="YmlekW7UCMXkX2L6uJOz-35" target="YmlekW7UCMXkX2L6uJOz-36" edge="1">
          <mxGeometry relative="1" as="geometry" />
        </mxCell>
        <mxCell id="YmlekW7UCMXkX2L6uJOz-37" value="" style="ellipse;whiteSpace=wrap;html=1;fillColor=#f8cecc;strokeColor=#b85450;" parent="YmlekW7UCMXkX2L6uJOz-55" vertex="1">
          <mxGeometry x="50" y="70" width="40" height="30" as="geometry" />
        </mxCell>
        <mxCell id="YmlekW7UCMXkX2L6uJOz-52" style="edgeStyle=none;rounded=0;orthogonalLoop=1;jettySize=auto;html=1;exitX=0;exitY=0.5;exitDx=0;exitDy=0;entryX=1;entryY=0.5;entryDx=0;entryDy=0;endArrow=none;endFill=0;" parent="YmlekW7UCMXkX2L6uJOz-55" source="YmlekW7UCMXkX2L6uJOz-38" target="YmlekW7UCMXkX2L6uJOz-37" edge="1">
          <mxGeometry relative="1" as="geometry" />
        </mxCell>
        <mxCell id="YmlekW7UCMXkX2L6uJOz-38" value="" style="ellipse;whiteSpace=wrap;html=1;fillColor=#f8cecc;strokeColor=#b85450;" parent="YmlekW7UCMXkX2L6uJOz-55" vertex="1">
          <mxGeometry x="110" y="70" width="40" height="30" as="geometry" />
        </mxCell>
        <mxCell id="YmlekW7UCMXkX2L6uJOz-39" value="" style="ellipse;whiteSpace=wrap;html=1;fillColor=#f8cecc;strokeColor=#b85450;" parent="YmlekW7UCMXkX2L6uJOz-55" vertex="1">
          <mxGeometry x="210" y="50" width="40" height="30" as="geometry" />
        </mxCell>
        <mxCell id="YmlekW7UCMXkX2L6uJOz-49" style="edgeStyle=none;rounded=0;orthogonalLoop=1;jettySize=auto;html=1;exitX=0.5;exitY=1;exitDx=0;exitDy=0;entryX=0.5;entryY=0;entryDx=0;entryDy=0;endArrow=none;endFill=0;" parent="YmlekW7UCMXkX2L6uJOz-55" source="YmlekW7UCMXkX2L6uJOz-36" target="YmlekW7UCMXkX2L6uJOz-39" edge="1">
          <mxGeometry relative="1" as="geometry" />
        </mxCell>
        <mxCell id="YmlekW7UCMXkX2L6uJOz-51" style="edgeStyle=none;rounded=0;orthogonalLoop=1;jettySize=auto;html=1;exitX=0;exitY=0.5;exitDx=0;exitDy=0;entryX=1;entryY=0.5;entryDx=0;entryDy=0;endArrow=none;endFill=0;" parent="YmlekW7UCMXkX2L6uJOz-55" source="YmlekW7UCMXkX2L6uJOz-40" target="YmlekW7UCMXkX2L6uJOz-38" edge="1">
          <mxGeometry relative="1" as="geometry" />
        </mxCell>
        <mxCell id="YmlekW7UCMXkX2L6uJOz-40" value="" style="ellipse;whiteSpace=wrap;html=1;fillColor=#f8cecc;strokeColor=#b85450;" parent="YmlekW7UCMXkX2L6uJOz-55" vertex="1">
          <mxGeometry x="180" y="80" width="40" height="30" as="geometry" />
        </mxCell>
        <mxCell id="YmlekW7UCMXkX2L6uJOz-50" style="edgeStyle=none;rounded=0;orthogonalLoop=1;jettySize=auto;html=1;exitX=0.5;exitY=1;exitDx=0;exitDy=0;entryX=1;entryY=0;entryDx=0;entryDy=0;endArrow=none;endFill=0;" parent="YmlekW7UCMXkX2L6uJOz-55" source="YmlekW7UCMXkX2L6uJOz-39" target="YmlekW7UCMXkX2L6uJOz-40" edge="1">
          <mxGeometry relative="1" as="geometry" />
        </mxCell>
        <mxCell id="YmlekW7UCMXkX2L6uJOz-56" value="" style="shape=flexArrow;endArrow=classic;html=1;rounded=0;" parent="1" edge="1">
          <mxGeometry width="50" height="50" relative="1" as="geometry">
            <mxPoint x="400" y="390" as="sourcePoint" />
            <mxPoint x="750" y="390" as="targetPoint" />
          </mxGeometry>
        </mxCell>
        <mxCell id="YmlekW7UCMXkX2L6uJOz-57" value="&lt;font style=&quot;font-size: 17px;&quot;&gt;MNE Embedding&lt;/font&gt;" style="whiteSpace=wrap;html=1;strokeColor=none;fillColor=none;fontStyle=1" parent="1" vertex="1">
          <mxGeometry x="490" y="340" width="160" height="40" as="geometry" />
        </mxCell>
        <mxCell id="YmlekW7UCMXkX2L6uJOz-74" value="" style="shape=flexArrow;endArrow=classic;html=1;rounded=0;" parent="1" edge="1">
          <mxGeometry width="50" height="50" relative="1" as="geometry">
            <mxPoint x="845" y="474.5" as="sourcePoint" />
            <mxPoint x="845" y="670" as="targetPoint" />
          </mxGeometry>
        </mxCell>
        <mxCell id="YmlekW7UCMXkX2L6uJOz-75" value="" style="group" parent="1" vertex="1" connectable="0">
          <mxGeometry x="950" y="730.5" width="170" height="167.5" as="geometry" />
        </mxCell>
        <mxCell id="YmlekW7UCMXkX2L6uJOz-85" style="edgeStyle=none;rounded=0;orthogonalLoop=1;jettySize=auto;html=1;exitX=1;exitY=1;exitDx=0;exitDy=0;entryX=0;entryY=0;entryDx=0;entryDy=0;fontSize=17;endArrow=none;endFill=0;dashed=1;fillColor=#e1d5e7;strokeColor=#9673a6;" parent="YmlekW7UCMXkX2L6uJOz-75" source="YmlekW7UCMXkX2L6uJOz-58" target="YmlekW7UCMXkX2L6uJOz-59" edge="1">
          <mxGeometry relative="1" as="geometry" />
        </mxCell>
        <mxCell id="YmlekW7UCMXkX2L6uJOz-90" style="edgeStyle=none;rounded=0;orthogonalLoop=1;jettySize=auto;html=1;exitX=0.5;exitY=1;exitDx=0;exitDy=0;entryX=0.5;entryY=0;entryDx=0;entryDy=0;dashed=1;fontSize=17;endArrow=none;endFill=0;fillColor=#e1d5e7;strokeColor=#9673a6;" parent="YmlekW7UCMXkX2L6uJOz-75" source="YmlekW7UCMXkX2L6uJOz-58" target="YmlekW7UCMXkX2L6uJOz-60" edge="1">
          <mxGeometry relative="1" as="geometry" />
        </mxCell>
        <mxCell id="YmlekW7UCMXkX2L6uJOz-58" value="" style="ellipse;whiteSpace=wrap;html=1;aspect=fixed;fontSize=17;fillColor=#e1d5e7;strokeColor=#9673a6;" parent="YmlekW7UCMXkX2L6uJOz-75" vertex="1">
          <mxGeometry x="60" width="30" height="30" as="geometry" />
        </mxCell>
        <mxCell id="YmlekW7UCMXkX2L6uJOz-59" value="" style="ellipse;whiteSpace=wrap;html=1;aspect=fixed;fontSize=17;fillColor=#e1d5e7;strokeColor=#9673a6;" parent="YmlekW7UCMXkX2L6uJOz-75" vertex="1">
          <mxGeometry x="110" y="30" width="30" height="30" as="geometry" />
        </mxCell>
        <mxCell id="YmlekW7UCMXkX2L6uJOz-67" style="edgeStyle=none;rounded=0;orthogonalLoop=1;jettySize=auto;html=1;exitX=1;exitY=0;exitDx=0;exitDy=0;entryX=0;entryY=1;entryDx=0;entryDy=0;fontSize=17;endArrow=none;endFill=0;fillColor=#e1d5e7;strokeColor=#9673a6;dashed=1;" parent="YmlekW7UCMXkX2L6uJOz-75" source="YmlekW7UCMXkX2L6uJOz-60" target="YmlekW7UCMXkX2L6uJOz-59" edge="1">
          <mxGeometry relative="1" as="geometry" />
        </mxCell>
        <mxCell id="YmlekW7UCMXkX2L6uJOz-60" value="" style="ellipse;whiteSpace=wrap;html=1;aspect=fixed;fontSize=17;fillColor=#e1d5e7;strokeColor=#9673a6;" parent="YmlekW7UCMXkX2L6uJOz-75" vertex="1">
          <mxGeometry x="70" y="65" width="30" height="30" as="geometry" />
        </mxCell>
        <mxCell id="YmlekW7UCMXkX2L6uJOz-86" style="edgeStyle=none;rounded=0;orthogonalLoop=1;jettySize=auto;html=1;exitX=1;exitY=1;exitDx=0;exitDy=0;entryX=0;entryY=0.5;entryDx=0;entryDy=0;fontSize=17;endArrow=none;endFill=0;dashed=1;fillColor=#e1d5e7;strokeColor=#9673a6;" parent="YmlekW7UCMXkX2L6uJOz-75" source="YmlekW7UCMXkX2L6uJOz-61" target="YmlekW7UCMXkX2L6uJOz-64" edge="1">
          <mxGeometry relative="1" as="geometry" />
        </mxCell>
        <mxCell id="YmlekW7UCMXkX2L6uJOz-88" style="edgeStyle=none;rounded=0;orthogonalLoop=1;jettySize=auto;html=1;exitX=1;exitY=0;exitDx=0;exitDy=0;entryX=0;entryY=1;entryDx=0;entryDy=0;fontSize=17;endArrow=none;endFill=0;dashed=1;fillColor=#e1d5e7;strokeColor=#9673a6;" parent="YmlekW7UCMXkX2L6uJOz-75" source="YmlekW7UCMXkX2L6uJOz-61" target="YmlekW7UCMXkX2L6uJOz-60" edge="1">
          <mxGeometry relative="1" as="geometry" />
        </mxCell>
        <mxCell id="YmlekW7UCMXkX2L6uJOz-61" value="" style="ellipse;whiteSpace=wrap;html=1;aspect=fixed;fontSize=17;fillColor=#e1d5e7;strokeColor=#9673a6;" parent="YmlekW7UCMXkX2L6uJOz-75" vertex="1">
          <mxGeometry y="105" width="30" height="30" as="geometry" />
        </mxCell>
        <mxCell id="YmlekW7UCMXkX2L6uJOz-69" style="edgeStyle=none;rounded=0;orthogonalLoop=1;jettySize=auto;html=1;exitX=0.5;exitY=0;exitDx=0;exitDy=0;entryX=1;entryY=1;entryDx=0;entryDy=0;fontSize=17;endArrow=none;endFill=0;fillColor=#e1d5e7;strokeColor=#9673a6;dashed=1;" parent="YmlekW7UCMXkX2L6uJOz-75" source="YmlekW7UCMXkX2L6uJOz-63" target="YmlekW7UCMXkX2L6uJOz-59" edge="1">
          <mxGeometry relative="1" as="geometry" />
        </mxCell>
        <mxCell id="YmlekW7UCMXkX2L6uJOz-89" style="edgeStyle=none;rounded=0;orthogonalLoop=1;jettySize=auto;html=1;exitX=0;exitY=0.5;exitDx=0;exitDy=0;entryX=1;entryY=1;entryDx=0;entryDy=0;fontSize=17;endArrow=none;endFill=0;dashed=1;fillColor=#e1d5e7;strokeColor=#9673a6;" parent="YmlekW7UCMXkX2L6uJOz-75" source="YmlekW7UCMXkX2L6uJOz-63" target="YmlekW7UCMXkX2L6uJOz-60" edge="1">
          <mxGeometry relative="1" as="geometry" />
        </mxCell>
        <mxCell id="YmlekW7UCMXkX2L6uJOz-63" value="" style="ellipse;whiteSpace=wrap;html=1;aspect=fixed;fontSize=17;fillColor=#e1d5e7;strokeColor=#9673a6;" parent="YmlekW7UCMXkX2L6uJOz-75" vertex="1">
          <mxGeometry x="140" y="85" width="30" height="30" as="geometry" />
        </mxCell>
        <mxCell id="YmlekW7UCMXkX2L6uJOz-70" style="edgeStyle=none;rounded=0;orthogonalLoop=1;jettySize=auto;html=1;exitX=0.5;exitY=0;exitDx=0;exitDy=0;entryX=0.5;entryY=1;entryDx=0;entryDy=0;fontSize=17;endArrow=none;endFill=0;fillColor=#e1d5e7;strokeColor=#9673a6;dashed=1;" parent="YmlekW7UCMXkX2L6uJOz-75" source="YmlekW7UCMXkX2L6uJOz-64" target="YmlekW7UCMXkX2L6uJOz-60" edge="1">
          <mxGeometry relative="1" as="geometry" />
        </mxCell>
        <mxCell id="YmlekW7UCMXkX2L6uJOz-87" style="edgeStyle=none;rounded=0;orthogonalLoop=1;jettySize=auto;html=1;exitX=1;exitY=0.5;exitDx=0;exitDy=0;entryX=0;entryY=1;entryDx=0;entryDy=0;fontSize=17;endArrow=none;endFill=0;dashed=1;fillColor=#e1d5e7;strokeColor=#9673a6;" parent="YmlekW7UCMXkX2L6uJOz-75" source="YmlekW7UCMXkX2L6uJOz-64" target="YmlekW7UCMXkX2L6uJOz-63" edge="1">
          <mxGeometry relative="1" as="geometry" />
        </mxCell>
        <mxCell id="YmlekW7UCMXkX2L6uJOz-64" value="" style="ellipse;whiteSpace=wrap;html=1;aspect=fixed;fontSize=17;fillColor=#e1d5e7;strokeColor=#9673a6;" parent="YmlekW7UCMXkX2L6uJOz-75" vertex="1">
          <mxGeometry x="80" y="115" width="30" height="30" as="geometry" />
        </mxCell>
        <mxCell id="YmlekW7UCMXkX2L6uJOz-71" style="edgeStyle=none;rounded=0;orthogonalLoop=1;jettySize=auto;html=1;exitX=1;exitY=0;exitDx=0;exitDy=0;entryX=0;entryY=1;entryDx=0;entryDy=0;fontSize=17;endArrow=none;endFill=0;fillColor=#e1d5e7;strokeColor=#9673a6;dashed=1;" parent="YmlekW7UCMXkX2L6uJOz-75" source="YmlekW7UCMXkX2L6uJOz-65" target="YmlekW7UCMXkX2L6uJOz-58" edge="1">
          <mxGeometry relative="1" as="geometry" />
        </mxCell>
        <mxCell id="YmlekW7UCMXkX2L6uJOz-65" value="" style="ellipse;whiteSpace=wrap;html=1;aspect=fixed;fontSize=17;fillColor=#e1d5e7;strokeColor=#9673a6;" parent="YmlekW7UCMXkX2L6uJOz-75" vertex="1">
          <mxGeometry x="10" y="45" width="30" height="30" as="geometry" />
        </mxCell>
        <mxCell id="YmlekW7UCMXkX2L6uJOz-68" style="edgeStyle=none;rounded=0;orthogonalLoop=1;jettySize=auto;html=1;exitX=0;exitY=0;exitDx=0;exitDy=0;entryX=1;entryY=0.5;entryDx=0;entryDy=0;fontSize=17;endArrow=none;endFill=0;fillColor=#e1d5e7;strokeColor=#9673a6;dashed=1;" parent="YmlekW7UCMXkX2L6uJOz-75" source="YmlekW7UCMXkX2L6uJOz-60" target="YmlekW7UCMXkX2L6uJOz-65" edge="1">
          <mxGeometry relative="1" as="geometry" />
        </mxCell>
        <mxCell id="YmlekW7UCMXkX2L6uJOz-72" style="edgeStyle=none;rounded=0;orthogonalLoop=1;jettySize=auto;html=1;exitX=0.5;exitY=0;exitDx=0;exitDy=0;entryX=0.5;entryY=1;entryDx=0;entryDy=0;fontSize=17;endArrow=none;endFill=0;fillColor=#e1d5e7;strokeColor=#9673a6;dashed=1;" parent="YmlekW7UCMXkX2L6uJOz-75" source="YmlekW7UCMXkX2L6uJOz-61" target="YmlekW7UCMXkX2L6uJOz-65" edge="1">
          <mxGeometry relative="1" as="geometry" />
        </mxCell>
        <mxCell id="YmlekW7UCMXkX2L6uJOz-207" value="" style="rounded=1;whiteSpace=wrap;html=1;fontFamily=Lucida Console;fontSize=13;fillColor=none;dashed=1;" parent="YmlekW7UCMXkX2L6uJOz-75" vertex="1">
          <mxGeometry x="-260" y="-22.5" width="430" height="190" as="geometry" />
        </mxCell>
        <mxCell id="YmlekW7UCMXkX2L6uJOz-76" value="" style="rounded=0;whiteSpace=wrap;html=1;fontSize=17;fillColor=#fff2cc;strokeColor=#d6b656;" parent="1" vertex="1">
          <mxGeometry x="770" y="320" width="10" height="130" as="geometry" />
        </mxCell>
        <mxCell id="YmlekW7UCMXkX2L6uJOz-77" value="" style="rounded=0;whiteSpace=wrap;html=1;fontSize=17;fillColor=#fff2cc;strokeColor=#d6b656;" parent="1" vertex="1">
          <mxGeometry x="790" y="320" width="10" height="130" as="geometry" />
        </mxCell>
        <mxCell id="YmlekW7UCMXkX2L6uJOz-78" value="" style="rounded=0;whiteSpace=wrap;html=1;fontSize=17;fillColor=#fff2cc;strokeColor=#d6b656;" parent="1" vertex="1">
          <mxGeometry x="810" y="320" width="10" height="130" as="geometry" />
        </mxCell>
        <mxCell id="YmlekW7UCMXkX2L6uJOz-79" value="" style="rounded=0;whiteSpace=wrap;html=1;fontSize=17;fillColor=#fff2cc;strokeColor=#d6b656;" parent="1" vertex="1">
          <mxGeometry x="830" y="320" width="10" height="130" as="geometry" />
        </mxCell>
        <mxCell id="YmlekW7UCMXkX2L6uJOz-80" value="" style="rounded=0;whiteSpace=wrap;html=1;fontSize=17;fillColor=#fff2cc;strokeColor=#d6b656;" parent="1" vertex="1">
          <mxGeometry x="850" y="320" width="10" height="130" as="geometry" />
        </mxCell>
        <mxCell id="YmlekW7UCMXkX2L6uJOz-81" value="" style="rounded=0;whiteSpace=wrap;html=1;fontSize=17;fillColor=#fff2cc;strokeColor=#d6b656;" parent="1" vertex="1">
          <mxGeometry x="870" y="320" width="10" height="130" as="geometry" />
        </mxCell>
        <mxCell id="YmlekW7UCMXkX2L6uJOz-82" value="" style="rounded=0;whiteSpace=wrap;html=1;fontSize=17;fillColor=#fff2cc;strokeColor=#d6b656;" parent="1" vertex="1">
          <mxGeometry x="890" y="320" width="10" height="130" as="geometry" />
        </mxCell>
        <mxCell id="YmlekW7UCMXkX2L6uJOz-83" value="" style="shape=curlyBracket;whiteSpace=wrap;html=1;rounded=1;fontSize=17;fillColor=none;rotation=90;" parent="1" vertex="1">
          <mxGeometry x="825" y="230" width="20" height="140" as="geometry" />
        </mxCell>
        <mxCell id="YmlekW7UCMXkX2L6uJOz-84" value="&lt;font style=&quot;font-size: 17px;&quot;&gt;Global Vector&lt;/font&gt;" style="whiteSpace=wrap;html=1;strokeColor=none;fillColor=none;fontStyle=1" parent="1" vertex="1">
          <mxGeometry x="775" y="260" width="120" height="40" as="geometry" />
        </mxCell>
        <mxCell id="YmlekW7UCMXkX2L6uJOz-93" value="" style="shape=table;html=1;whiteSpace=wrap;startSize=0;container=1;collapsible=0;childLayout=tableLayout;fontSize=17;fillColor=#e1d5e7;strokeColor=#9673a6;" parent="1" vertex="1">
          <mxGeometry x="720" y="730.5" width="150" height="149" as="geometry" />
        </mxCell>
        <mxCell id="YmlekW7UCMXkX2L6uJOz-94" value="" style="shape=tableRow;horizontal=0;startSize=0;swimlaneHead=0;swimlaneBody=0;top=0;left=0;bottom=0;right=0;collapsible=0;dropTarget=0;fillColor=none;points=[[0,0.5],[1,0.5]];portConstraint=eastwest;fontSize=17;" parent="YmlekW7UCMXkX2L6uJOz-93" vertex="1">
          <mxGeometry width="150" height="20" as="geometry" />
        </mxCell>
        <mxCell id="YmlekW7UCMXkX2L6uJOz-109" style="shape=partialRectangle;html=1;whiteSpace=wrap;connectable=0;fillColor=none;top=0;left=0;bottom=0;right=0;overflow=hidden;fontSize=17;" parent="YmlekW7UCMXkX2L6uJOz-94" vertex="1">
          <mxGeometry width="20" height="20" as="geometry">
            <mxRectangle width="20" height="20" as="alternateBounds" />
          </mxGeometry>
        </mxCell>
        <mxCell id="YmlekW7UCMXkX2L6uJOz-112" style="shape=partialRectangle;html=1;whiteSpace=wrap;connectable=0;fillColor=none;top=0;left=0;bottom=0;right=0;overflow=hidden;fontSize=17;" parent="YmlekW7UCMXkX2L6uJOz-94" vertex="1">
          <mxGeometry x="20" width="20" height="20" as="geometry">
            <mxRectangle width="20" height="20" as="alternateBounds" />
          </mxGeometry>
        </mxCell>
        <mxCell id="YmlekW7UCMXkX2L6uJOz-96" value="" style="shape=partialRectangle;html=1;whiteSpace=wrap;connectable=0;fillColor=none;top=0;left=0;bottom=0;right=0;overflow=hidden;fontSize=17;" parent="YmlekW7UCMXkX2L6uJOz-94" vertex="1">
          <mxGeometry x="40" width="25" height="20" as="geometry">
            <mxRectangle width="25" height="20" as="alternateBounds" />
          </mxGeometry>
        </mxCell>
        <mxCell id="YmlekW7UCMXkX2L6uJOz-145" style="shape=partialRectangle;html=1;whiteSpace=wrap;connectable=0;fillColor=none;top=0;left=0;bottom=0;right=0;overflow=hidden;fontSize=17;" parent="YmlekW7UCMXkX2L6uJOz-94" vertex="1">
          <mxGeometry x="65" width="21" height="20" as="geometry">
            <mxRectangle width="21" height="20" as="alternateBounds" />
          </mxGeometry>
        </mxCell>
        <mxCell id="YmlekW7UCMXkX2L6uJOz-152" style="shape=partialRectangle;html=1;whiteSpace=wrap;connectable=0;fillColor=none;top=0;left=0;bottom=0;right=0;overflow=hidden;fontSize=17;" parent="YmlekW7UCMXkX2L6uJOz-94" vertex="1">
          <mxGeometry x="86" width="21" height="20" as="geometry">
            <mxRectangle width="21" height="20" as="alternateBounds" />
          </mxGeometry>
        </mxCell>
        <mxCell id="YmlekW7UCMXkX2L6uJOz-159" style="shape=partialRectangle;html=1;whiteSpace=wrap;connectable=0;fillColor=none;top=0;left=0;bottom=0;right=0;overflow=hidden;fontSize=17;" parent="YmlekW7UCMXkX2L6uJOz-94" vertex="1">
          <mxGeometry x="107" width="22" height="20" as="geometry">
            <mxRectangle width="22" height="20" as="alternateBounds" />
          </mxGeometry>
        </mxCell>
        <mxCell id="YmlekW7UCMXkX2L6uJOz-166" style="shape=partialRectangle;html=1;whiteSpace=wrap;connectable=0;fillColor=none;top=0;left=0;bottom=0;right=0;overflow=hidden;fontSize=17;" parent="YmlekW7UCMXkX2L6uJOz-94" vertex="1">
          <mxGeometry x="129" width="21" height="20" as="geometry">
            <mxRectangle width="21" height="20" as="alternateBounds" />
          </mxGeometry>
        </mxCell>
        <mxCell id="YmlekW7UCMXkX2L6uJOz-98" value="" style="shape=tableRow;horizontal=0;startSize=0;swimlaneHead=0;swimlaneBody=0;top=0;left=0;bottom=0;right=0;collapsible=0;dropTarget=0;fillColor=none;points=[[0,0.5],[1,0.5]];portConstraint=eastwest;fontSize=17;" parent="YmlekW7UCMXkX2L6uJOz-93" vertex="1">
          <mxGeometry y="20" width="150" height="23" as="geometry" />
        </mxCell>
        <mxCell id="YmlekW7UCMXkX2L6uJOz-110" style="shape=partialRectangle;html=1;whiteSpace=wrap;connectable=0;fillColor=none;top=0;left=0;bottom=0;right=0;overflow=hidden;fontSize=17;" parent="YmlekW7UCMXkX2L6uJOz-98" vertex="1">
          <mxGeometry width="20" height="23" as="geometry">
            <mxRectangle width="20" height="23" as="alternateBounds" />
          </mxGeometry>
        </mxCell>
        <mxCell id="YmlekW7UCMXkX2L6uJOz-113" style="shape=partialRectangle;html=1;whiteSpace=wrap;connectable=0;fillColor=none;top=0;left=0;bottom=0;right=0;overflow=hidden;fontSize=17;" parent="YmlekW7UCMXkX2L6uJOz-98" vertex="1">
          <mxGeometry x="20" width="20" height="23" as="geometry">
            <mxRectangle width="20" height="23" as="alternateBounds" />
          </mxGeometry>
        </mxCell>
        <mxCell id="YmlekW7UCMXkX2L6uJOz-100" value="" style="shape=partialRectangle;html=1;whiteSpace=wrap;connectable=0;fillColor=none;top=0;left=0;bottom=0;right=0;overflow=hidden;fontSize=17;" parent="YmlekW7UCMXkX2L6uJOz-98" vertex="1">
          <mxGeometry x="40" width="25" height="23" as="geometry">
            <mxRectangle width="25" height="23" as="alternateBounds" />
          </mxGeometry>
        </mxCell>
        <mxCell id="YmlekW7UCMXkX2L6uJOz-146" style="shape=partialRectangle;html=1;whiteSpace=wrap;connectable=0;fillColor=none;top=0;left=0;bottom=0;right=0;overflow=hidden;fontSize=17;" parent="YmlekW7UCMXkX2L6uJOz-98" vertex="1">
          <mxGeometry x="65" width="21" height="23" as="geometry">
            <mxRectangle width="21" height="23" as="alternateBounds" />
          </mxGeometry>
        </mxCell>
        <mxCell id="YmlekW7UCMXkX2L6uJOz-153" style="shape=partialRectangle;html=1;whiteSpace=wrap;connectable=0;fillColor=none;top=0;left=0;bottom=0;right=0;overflow=hidden;fontSize=17;" parent="YmlekW7UCMXkX2L6uJOz-98" vertex="1">
          <mxGeometry x="86" width="21" height="23" as="geometry">
            <mxRectangle width="21" height="23" as="alternateBounds" />
          </mxGeometry>
        </mxCell>
        <mxCell id="YmlekW7UCMXkX2L6uJOz-160" style="shape=partialRectangle;html=1;whiteSpace=wrap;connectable=0;fillColor=none;top=0;left=0;bottom=0;right=0;overflow=hidden;fontSize=17;" parent="YmlekW7UCMXkX2L6uJOz-98" vertex="1">
          <mxGeometry x="107" width="22" height="23" as="geometry">
            <mxRectangle width="22" height="23" as="alternateBounds" />
          </mxGeometry>
        </mxCell>
        <mxCell id="YmlekW7UCMXkX2L6uJOz-167" style="shape=partialRectangle;html=1;whiteSpace=wrap;connectable=0;fillColor=none;top=0;left=0;bottom=0;right=0;overflow=hidden;fontSize=17;" parent="YmlekW7UCMXkX2L6uJOz-98" vertex="1">
          <mxGeometry x="129" width="21" height="23" as="geometry">
            <mxRectangle width="21" height="23" as="alternateBounds" />
          </mxGeometry>
        </mxCell>
        <mxCell id="YmlekW7UCMXkX2L6uJOz-102" value="" style="shape=tableRow;horizontal=0;startSize=0;swimlaneHead=0;swimlaneBody=0;top=0;left=0;bottom=0;right=0;collapsible=0;dropTarget=0;fillColor=none;points=[[0,0.5],[1,0.5]];portConstraint=eastwest;fontSize=17;" parent="YmlekW7UCMXkX2L6uJOz-93" vertex="1">
          <mxGeometry y="43" width="150" height="21" as="geometry" />
        </mxCell>
        <mxCell id="YmlekW7UCMXkX2L6uJOz-111" style="shape=partialRectangle;html=1;whiteSpace=wrap;connectable=0;fillColor=none;top=0;left=0;bottom=0;right=0;overflow=hidden;fontSize=17;" parent="YmlekW7UCMXkX2L6uJOz-102" vertex="1">
          <mxGeometry width="20" height="21" as="geometry">
            <mxRectangle width="20" height="21" as="alternateBounds" />
          </mxGeometry>
        </mxCell>
        <mxCell id="YmlekW7UCMXkX2L6uJOz-114" style="shape=partialRectangle;html=1;whiteSpace=wrap;connectable=0;fillColor=none;top=0;left=0;bottom=0;right=0;overflow=hidden;fontSize=17;" parent="YmlekW7UCMXkX2L6uJOz-102" vertex="1">
          <mxGeometry x="20" width="20" height="21" as="geometry">
            <mxRectangle width="20" height="21" as="alternateBounds" />
          </mxGeometry>
        </mxCell>
        <mxCell id="YmlekW7UCMXkX2L6uJOz-104" value="" style="shape=partialRectangle;html=1;whiteSpace=wrap;connectable=0;fillColor=none;top=0;left=0;bottom=0;right=0;overflow=hidden;fontSize=17;" parent="YmlekW7UCMXkX2L6uJOz-102" vertex="1">
          <mxGeometry x="40" width="25" height="21" as="geometry">
            <mxRectangle width="25" height="21" as="alternateBounds" />
          </mxGeometry>
        </mxCell>
        <mxCell id="YmlekW7UCMXkX2L6uJOz-147" style="shape=partialRectangle;html=1;whiteSpace=wrap;connectable=0;fillColor=none;top=0;left=0;bottom=0;right=0;overflow=hidden;fontSize=17;" parent="YmlekW7UCMXkX2L6uJOz-102" vertex="1">
          <mxGeometry x="65" width="21" height="21" as="geometry">
            <mxRectangle width="21" height="21" as="alternateBounds" />
          </mxGeometry>
        </mxCell>
        <mxCell id="YmlekW7UCMXkX2L6uJOz-154" style="shape=partialRectangle;html=1;whiteSpace=wrap;connectable=0;fillColor=none;top=0;left=0;bottom=0;right=0;overflow=hidden;fontSize=17;" parent="YmlekW7UCMXkX2L6uJOz-102" vertex="1">
          <mxGeometry x="86" width="21" height="21" as="geometry">
            <mxRectangle width="21" height="21" as="alternateBounds" />
          </mxGeometry>
        </mxCell>
        <mxCell id="YmlekW7UCMXkX2L6uJOz-161" style="shape=partialRectangle;html=1;whiteSpace=wrap;connectable=0;fillColor=none;top=0;left=0;bottom=0;right=0;overflow=hidden;fontSize=17;" parent="YmlekW7UCMXkX2L6uJOz-102" vertex="1">
          <mxGeometry x="107" width="22" height="21" as="geometry">
            <mxRectangle width="22" height="21" as="alternateBounds" />
          </mxGeometry>
        </mxCell>
        <mxCell id="YmlekW7UCMXkX2L6uJOz-168" style="shape=partialRectangle;html=1;whiteSpace=wrap;connectable=0;fillColor=none;top=0;left=0;bottom=0;right=0;overflow=hidden;fontSize=17;" parent="YmlekW7UCMXkX2L6uJOz-102" vertex="1">
          <mxGeometry x="129" width="21" height="21" as="geometry">
            <mxRectangle width="21" height="21" as="alternateBounds" />
          </mxGeometry>
        </mxCell>
        <mxCell id="YmlekW7UCMXkX2L6uJOz-115" style="shape=tableRow;horizontal=0;startSize=0;swimlaneHead=0;swimlaneBody=0;top=0;left=0;bottom=0;right=0;collapsible=0;dropTarget=0;fillColor=none;points=[[0,0.5],[1,0.5]];portConstraint=eastwest;fontSize=17;" parent="YmlekW7UCMXkX2L6uJOz-93" vertex="1">
          <mxGeometry y="64" width="150" height="21" as="geometry" />
        </mxCell>
        <mxCell id="YmlekW7UCMXkX2L6uJOz-116" style="shape=partialRectangle;html=1;whiteSpace=wrap;connectable=0;fillColor=none;top=0;left=0;bottom=0;right=0;overflow=hidden;fontSize=17;" parent="YmlekW7UCMXkX2L6uJOz-115" vertex="1">
          <mxGeometry width="20" height="21" as="geometry">
            <mxRectangle width="20" height="21" as="alternateBounds" />
          </mxGeometry>
        </mxCell>
        <mxCell id="YmlekW7UCMXkX2L6uJOz-117" style="shape=partialRectangle;html=1;whiteSpace=wrap;connectable=0;fillColor=none;top=0;left=0;bottom=0;right=0;overflow=hidden;fontSize=17;" parent="YmlekW7UCMXkX2L6uJOz-115" vertex="1">
          <mxGeometry x="20" width="20" height="21" as="geometry">
            <mxRectangle width="20" height="21" as="alternateBounds" />
          </mxGeometry>
        </mxCell>
        <mxCell id="YmlekW7UCMXkX2L6uJOz-118" style="shape=partialRectangle;html=1;whiteSpace=wrap;connectable=0;fillColor=none;top=0;left=0;bottom=0;right=0;overflow=hidden;fontSize=17;" parent="YmlekW7UCMXkX2L6uJOz-115" vertex="1">
          <mxGeometry x="40" width="25" height="21" as="geometry">
            <mxRectangle width="25" height="21" as="alternateBounds" />
          </mxGeometry>
        </mxCell>
        <mxCell id="YmlekW7UCMXkX2L6uJOz-148" style="shape=partialRectangle;html=1;whiteSpace=wrap;connectable=0;fillColor=none;top=0;left=0;bottom=0;right=0;overflow=hidden;fontSize=17;" parent="YmlekW7UCMXkX2L6uJOz-115" vertex="1">
          <mxGeometry x="65" width="21" height="21" as="geometry">
            <mxRectangle width="21" height="21" as="alternateBounds" />
          </mxGeometry>
        </mxCell>
        <mxCell id="YmlekW7UCMXkX2L6uJOz-155" style="shape=partialRectangle;html=1;whiteSpace=wrap;connectable=0;fillColor=none;top=0;left=0;bottom=0;right=0;overflow=hidden;fontSize=17;" parent="YmlekW7UCMXkX2L6uJOz-115" vertex="1">
          <mxGeometry x="86" width="21" height="21" as="geometry">
            <mxRectangle width="21" height="21" as="alternateBounds" />
          </mxGeometry>
        </mxCell>
        <mxCell id="YmlekW7UCMXkX2L6uJOz-162" style="shape=partialRectangle;html=1;whiteSpace=wrap;connectable=0;fillColor=none;top=0;left=0;bottom=0;right=0;overflow=hidden;fontSize=17;" parent="YmlekW7UCMXkX2L6uJOz-115" vertex="1">
          <mxGeometry x="107" width="22" height="21" as="geometry">
            <mxRectangle width="22" height="21" as="alternateBounds" />
          </mxGeometry>
        </mxCell>
        <mxCell id="YmlekW7UCMXkX2L6uJOz-169" style="shape=partialRectangle;html=1;whiteSpace=wrap;connectable=0;fillColor=none;top=0;left=0;bottom=0;right=0;overflow=hidden;fontSize=17;" parent="YmlekW7UCMXkX2L6uJOz-115" vertex="1">
          <mxGeometry x="129" width="21" height="21" as="geometry">
            <mxRectangle width="21" height="21" as="alternateBounds" />
          </mxGeometry>
        </mxCell>
        <mxCell id="YmlekW7UCMXkX2L6uJOz-120" style="shape=tableRow;horizontal=0;startSize=0;swimlaneHead=0;swimlaneBody=0;top=0;left=0;bottom=0;right=0;collapsible=0;dropTarget=0;fillColor=none;points=[[0,0.5],[1,0.5]];portConstraint=eastwest;fontSize=17;" parent="YmlekW7UCMXkX2L6uJOz-93" vertex="1">
          <mxGeometry y="85" width="150" height="21" as="geometry" />
        </mxCell>
        <mxCell id="YmlekW7UCMXkX2L6uJOz-121" style="shape=partialRectangle;html=1;whiteSpace=wrap;connectable=0;fillColor=none;top=0;left=0;bottom=0;right=0;overflow=hidden;fontSize=17;" parent="YmlekW7UCMXkX2L6uJOz-120" vertex="1">
          <mxGeometry width="20" height="21" as="geometry">
            <mxRectangle width="20" height="21" as="alternateBounds" />
          </mxGeometry>
        </mxCell>
        <mxCell id="YmlekW7UCMXkX2L6uJOz-122" style="shape=partialRectangle;html=1;whiteSpace=wrap;connectable=0;fillColor=none;top=0;left=0;bottom=0;right=0;overflow=hidden;fontSize=17;" parent="YmlekW7UCMXkX2L6uJOz-120" vertex="1">
          <mxGeometry x="20" width="20" height="21" as="geometry">
            <mxRectangle width="20" height="21" as="alternateBounds" />
          </mxGeometry>
        </mxCell>
        <mxCell id="YmlekW7UCMXkX2L6uJOz-123" style="shape=partialRectangle;html=1;whiteSpace=wrap;connectable=0;fillColor=none;top=0;left=0;bottom=0;right=0;overflow=hidden;fontSize=17;" parent="YmlekW7UCMXkX2L6uJOz-120" vertex="1">
          <mxGeometry x="40" width="25" height="21" as="geometry">
            <mxRectangle width="25" height="21" as="alternateBounds" />
          </mxGeometry>
        </mxCell>
        <mxCell id="YmlekW7UCMXkX2L6uJOz-149" style="shape=partialRectangle;html=1;whiteSpace=wrap;connectable=0;fillColor=none;top=0;left=0;bottom=0;right=0;overflow=hidden;fontSize=17;" parent="YmlekW7UCMXkX2L6uJOz-120" vertex="1">
          <mxGeometry x="65" width="21" height="21" as="geometry">
            <mxRectangle width="21" height="21" as="alternateBounds" />
          </mxGeometry>
        </mxCell>
        <mxCell id="YmlekW7UCMXkX2L6uJOz-156" style="shape=partialRectangle;html=1;whiteSpace=wrap;connectable=0;fillColor=none;top=0;left=0;bottom=0;right=0;overflow=hidden;fontSize=17;" parent="YmlekW7UCMXkX2L6uJOz-120" vertex="1">
          <mxGeometry x="86" width="21" height="21" as="geometry">
            <mxRectangle width="21" height="21" as="alternateBounds" />
          </mxGeometry>
        </mxCell>
        <mxCell id="YmlekW7UCMXkX2L6uJOz-163" style="shape=partialRectangle;html=1;whiteSpace=wrap;connectable=0;fillColor=none;top=0;left=0;bottom=0;right=0;overflow=hidden;fontSize=17;" parent="YmlekW7UCMXkX2L6uJOz-120" vertex="1">
          <mxGeometry x="107" width="22" height="21" as="geometry">
            <mxRectangle width="22" height="21" as="alternateBounds" />
          </mxGeometry>
        </mxCell>
        <mxCell id="YmlekW7UCMXkX2L6uJOz-170" style="shape=partialRectangle;html=1;whiteSpace=wrap;connectable=0;fillColor=none;top=0;left=0;bottom=0;right=0;overflow=hidden;fontSize=17;" parent="YmlekW7UCMXkX2L6uJOz-120" vertex="1">
          <mxGeometry x="129" width="21" height="21" as="geometry">
            <mxRectangle width="21" height="21" as="alternateBounds" />
          </mxGeometry>
        </mxCell>
        <mxCell id="YmlekW7UCMXkX2L6uJOz-125" style="shape=tableRow;horizontal=0;startSize=0;swimlaneHead=0;swimlaneBody=0;top=0;left=0;bottom=0;right=0;collapsible=0;dropTarget=0;fillColor=none;points=[[0,0.5],[1,0.5]];portConstraint=eastwest;fontSize=17;" parent="YmlekW7UCMXkX2L6uJOz-93" vertex="1">
          <mxGeometry y="106" width="150" height="22" as="geometry" />
        </mxCell>
        <mxCell id="YmlekW7UCMXkX2L6uJOz-126" style="shape=partialRectangle;html=1;whiteSpace=wrap;connectable=0;fillColor=none;top=0;left=0;bottom=0;right=0;overflow=hidden;fontSize=17;" parent="YmlekW7UCMXkX2L6uJOz-125" vertex="1">
          <mxGeometry width="20" height="22" as="geometry">
            <mxRectangle width="20" height="22" as="alternateBounds" />
          </mxGeometry>
        </mxCell>
        <mxCell id="YmlekW7UCMXkX2L6uJOz-127" style="shape=partialRectangle;html=1;whiteSpace=wrap;connectable=0;fillColor=none;top=0;left=0;bottom=0;right=0;overflow=hidden;fontSize=17;" parent="YmlekW7UCMXkX2L6uJOz-125" vertex="1">
          <mxGeometry x="20" width="20" height="22" as="geometry">
            <mxRectangle width="20" height="22" as="alternateBounds" />
          </mxGeometry>
        </mxCell>
        <mxCell id="YmlekW7UCMXkX2L6uJOz-128" style="shape=partialRectangle;html=1;whiteSpace=wrap;connectable=0;fillColor=none;top=0;left=0;bottom=0;right=0;overflow=hidden;fontSize=17;" parent="YmlekW7UCMXkX2L6uJOz-125" vertex="1">
          <mxGeometry x="40" width="25" height="22" as="geometry">
            <mxRectangle width="25" height="22" as="alternateBounds" />
          </mxGeometry>
        </mxCell>
        <mxCell id="YmlekW7UCMXkX2L6uJOz-150" style="shape=partialRectangle;html=1;whiteSpace=wrap;connectable=0;fillColor=none;top=0;left=0;bottom=0;right=0;overflow=hidden;fontSize=17;" parent="YmlekW7UCMXkX2L6uJOz-125" vertex="1">
          <mxGeometry x="65" width="21" height="22" as="geometry">
            <mxRectangle width="21" height="22" as="alternateBounds" />
          </mxGeometry>
        </mxCell>
        <mxCell id="YmlekW7UCMXkX2L6uJOz-157" style="shape=partialRectangle;html=1;whiteSpace=wrap;connectable=0;fillColor=none;top=0;left=0;bottom=0;right=0;overflow=hidden;fontSize=17;" parent="YmlekW7UCMXkX2L6uJOz-125" vertex="1">
          <mxGeometry x="86" width="21" height="22" as="geometry">
            <mxRectangle width="21" height="22" as="alternateBounds" />
          </mxGeometry>
        </mxCell>
        <mxCell id="YmlekW7UCMXkX2L6uJOz-164" style="shape=partialRectangle;html=1;whiteSpace=wrap;connectable=0;fillColor=none;top=0;left=0;bottom=0;right=0;overflow=hidden;fontSize=17;" parent="YmlekW7UCMXkX2L6uJOz-125" vertex="1">
          <mxGeometry x="107" width="22" height="22" as="geometry">
            <mxRectangle width="22" height="22" as="alternateBounds" />
          </mxGeometry>
        </mxCell>
        <mxCell id="YmlekW7UCMXkX2L6uJOz-171" style="shape=partialRectangle;html=1;whiteSpace=wrap;connectable=0;fillColor=none;top=0;left=0;bottom=0;right=0;overflow=hidden;fontSize=17;" parent="YmlekW7UCMXkX2L6uJOz-125" vertex="1">
          <mxGeometry x="129" width="21" height="22" as="geometry">
            <mxRectangle width="21" height="22" as="alternateBounds" />
          </mxGeometry>
        </mxCell>
        <mxCell id="YmlekW7UCMXkX2L6uJOz-130" style="shape=tableRow;horizontal=0;startSize=0;swimlaneHead=0;swimlaneBody=0;top=0;left=0;bottom=0;right=0;collapsible=0;dropTarget=0;fillColor=none;points=[[0,0.5],[1,0.5]];portConstraint=eastwest;fontSize=17;" parent="YmlekW7UCMXkX2L6uJOz-93" vertex="1">
          <mxGeometry y="128" width="150" height="21" as="geometry" />
        </mxCell>
        <mxCell id="YmlekW7UCMXkX2L6uJOz-131" style="shape=partialRectangle;html=1;whiteSpace=wrap;connectable=0;fillColor=none;top=0;left=0;bottom=0;right=0;overflow=hidden;fontSize=17;" parent="YmlekW7UCMXkX2L6uJOz-130" vertex="1">
          <mxGeometry width="20" height="21" as="geometry">
            <mxRectangle width="20" height="21" as="alternateBounds" />
          </mxGeometry>
        </mxCell>
        <mxCell id="YmlekW7UCMXkX2L6uJOz-132" style="shape=partialRectangle;html=1;whiteSpace=wrap;connectable=0;fillColor=none;top=0;left=0;bottom=0;right=0;overflow=hidden;fontSize=17;" parent="YmlekW7UCMXkX2L6uJOz-130" vertex="1">
          <mxGeometry x="20" width="20" height="21" as="geometry">
            <mxRectangle width="20" height="21" as="alternateBounds" />
          </mxGeometry>
        </mxCell>
        <mxCell id="YmlekW7UCMXkX2L6uJOz-133" style="shape=partialRectangle;html=1;whiteSpace=wrap;connectable=0;fillColor=none;top=0;left=0;bottom=0;right=0;overflow=hidden;fontSize=17;" parent="YmlekW7UCMXkX2L6uJOz-130" vertex="1">
          <mxGeometry x="40" width="25" height="21" as="geometry">
            <mxRectangle width="25" height="21" as="alternateBounds" />
          </mxGeometry>
        </mxCell>
        <mxCell id="YmlekW7UCMXkX2L6uJOz-151" style="shape=partialRectangle;html=1;whiteSpace=wrap;connectable=0;fillColor=none;top=0;left=0;bottom=0;right=0;overflow=hidden;fontSize=17;" parent="YmlekW7UCMXkX2L6uJOz-130" vertex="1">
          <mxGeometry x="65" width="21" height="21" as="geometry">
            <mxRectangle width="21" height="21" as="alternateBounds" />
          </mxGeometry>
        </mxCell>
        <mxCell id="YmlekW7UCMXkX2L6uJOz-158" style="shape=partialRectangle;html=1;whiteSpace=wrap;connectable=0;fillColor=none;top=0;left=0;bottom=0;right=0;overflow=hidden;fontSize=17;" parent="YmlekW7UCMXkX2L6uJOz-130" vertex="1">
          <mxGeometry x="86" width="21" height="21" as="geometry">
            <mxRectangle width="21" height="21" as="alternateBounds" />
          </mxGeometry>
        </mxCell>
        <mxCell id="YmlekW7UCMXkX2L6uJOz-165" style="shape=partialRectangle;html=1;whiteSpace=wrap;connectable=0;fillColor=none;top=0;left=0;bottom=0;right=0;overflow=hidden;fontSize=17;" parent="YmlekW7UCMXkX2L6uJOz-130" vertex="1">
          <mxGeometry x="107" width="22" height="21" as="geometry">
            <mxRectangle width="22" height="21" as="alternateBounds" />
          </mxGeometry>
        </mxCell>
        <mxCell id="YmlekW7UCMXkX2L6uJOz-172" style="shape=partialRectangle;html=1;whiteSpace=wrap;connectable=0;fillColor=none;top=0;left=0;bottom=0;right=0;overflow=hidden;fontSize=17;" parent="YmlekW7UCMXkX2L6uJOz-130" vertex="1">
          <mxGeometry x="129" width="21" height="21" as="geometry">
            <mxRectangle width="21" height="21" as="alternateBounds" />
          </mxGeometry>
        </mxCell>
        <mxCell id="YmlekW7UCMXkX2L6uJOz-183" value="" style="shape=flexArrow;endArrow=classic;html=1;rounded=0;" parent="1" edge="1">
          <mxGeometry width="50" height="50" relative="1" as="geometry">
            <mxPoint x="215" y="818.43" as="sourcePoint" />
            <mxPoint x="85" y="818.43" as="targetPoint" />
          </mxGeometry>
        </mxCell>
        <mxCell id="YmlekW7UCMXkX2L6uJOz-184" value="&lt;font style=&quot;font-size: 17px;&quot;&gt;PageRank&lt;/font&gt;" style="whiteSpace=wrap;html=1;strokeColor=none;fillColor=none;fontStyle=1" parent="1" vertex="1">
          <mxGeometry x="90" y="760" width="120" height="40" as="geometry" />
        </mxCell>
        <mxCell id="YmlekW7UCMXkX2L6uJOz-195" value="&lt;span style=&quot;color: rgb(51, 51, 51); font-family: &amp;quot;Microsoft YaHei&amp;quot;, 微软雅黑, ff-yoga-web-pro, &amp;quot;Georgia,serif&amp;quot;, STXihei, 华文细黑, &amp;quot;Helvetica Neue&amp;quot;, &amp;quot;IBM Plex Mono&amp;quot;, &amp;quot;Space Grotesk&amp;quot;, &amp;quot;Roboto Slab&amp;quot;, &amp;quot;sans-serif&amp;quot;, Helvetica, Arial, &amp;quot;sans-serif&amp;quot;, &amp;quot;serif&amp;quot;; font-size: 16px; text-align: left; background-color: rgb(255, 255, 255);&quot;&gt;Genes as Biomarkers&lt;/span&gt;" style="whiteSpace=wrap;html=1;strokeColor=none;fillColor=none;fontStyle=1" parent="1" vertex="1">
          <mxGeometry x="-50" y="674.75" width="130" height="40" as="geometry" />
        </mxCell>
        <mxCell id="YmlekW7UCMXkX2L6uJOz-196" value="&lt;span style=&quot;color: rgb(51, 51, 51); font-family: &amp;quot;Microsoft YaHei&amp;quot;, 微软雅黑, ff-yoga-web-pro, &amp;quot;Georgia,serif&amp;quot;, STXihei, 华文细黑, &amp;quot;Helvetica Neue&amp;quot;, &amp;quot;IBM Plex Mono&amp;quot;, &amp;quot;Space Grotesk&amp;quot;, &amp;quot;Roboto Slab&amp;quot;, &amp;quot;sans-serif&amp;quot;, Helvetica, Arial, &amp;quot;sans-serif&amp;quot;, &amp;quot;serif&amp;quot;; font-size: 16px; text-align: left; background-color: rgb(255, 255, 255);&quot;&gt;&amp;nbsp;Cosine Similarity&lt;/span&gt;" style="whiteSpace=wrap;html=1;strokeColor=none;fillColor=none;fontStyle=1" parent="1" vertex="1">
          <mxGeometry x="865" y="539.5" width="170" height="30" as="geometry" />
        </mxCell>
        <mxCell id="YmlekW7UCMXkX2L6uJOz-197" value="&lt;span style=&quot;font-size: 17px;&quot;&gt;PPI&lt;/span&gt;" style="whiteSpace=wrap;html=1;strokeColor=none;fillColor=none;" parent="1" vertex="1">
          <mxGeometry x="-140" y="190" width="120" height="40" as="geometry" />
        </mxCell>
        <mxCell id="YmlekW7UCMXkX2L6uJOz-198" value="&lt;span style=&quot;font-size: 17px;&quot;&gt;PATHWAY&lt;/span&gt;" style="whiteSpace=wrap;html=1;strokeColor=none;fillColor=none;" parent="1" vertex="1">
          <mxGeometry x="-120" y="350" width="120" height="40" as="geometry" />
        </mxCell>
        <mxCell id="YmlekW7UCMXkX2L6uJOz-202" value="" style="endArrow=classic;startArrow=classic;html=1;rounded=0;dashed=1;fontFamily=Lucida Console;fontSize=13;" parent="1" edge="1">
          <mxGeometry width="50" height="50" relative="1" as="geometry">
            <mxPoint x="880" y="802.5" as="sourcePoint" />
            <mxPoint x="940" y="802.5" as="targetPoint" />
            <Array as="points">
              <mxPoint x="940" y="802.5" />
            </Array>
          </mxGeometry>
        </mxCell>
        <mxCell id="YmlekW7UCMXkX2L6uJOz-208" value="&lt;span style=&quot;color: rgb(51, 51, 51); font-family: &amp;quot;Microsoft YaHei&amp;quot;, 微软雅黑, ff-yoga-web-pro, &amp;quot;Georgia,serif&amp;quot;, STXihei, 华文细黑, &amp;quot;Helvetica Neue&amp;quot;, &amp;quot;IBM Plex Mono&amp;quot;, &amp;quot;Space Grotesk&amp;quot;, &amp;quot;Roboto Slab&amp;quot;, &amp;quot;sans-serif&amp;quot;, Helvetica, Arial, &amp;quot;sans-serif&amp;quot;, &amp;quot;serif&amp;quot;; font-size: 16px; text-align: left; background-color: rgb(255, 255, 255);&quot;&gt;Mutilpex Network&lt;/span&gt;" style="whiteSpace=wrap;html=1;strokeColor=none;fillColor=none;fontStyle=1" parent="1" vertex="1">
          <mxGeometry x="-20" y="630" width="220" height="40" as="geometry" />
        </mxCell>
        <mxCell id="YmlekW7UCMXkX2L6uJOz-209" value="&lt;font style=&quot;font-size: 17px;&quot;&gt;Restrcuted network&lt;/font&gt;" style="whiteSpace=wrap;html=1;strokeColor=none;fillColor=none;fontStyle=1" parent="1" vertex="1">
          <mxGeometry x="817.5" y="908" width="195" height="40" as="geometry" />
        </mxCell>
        <mxCell id="YmlekW7UCMXkX2L6uJOz-185" value="" style="shape=curlyBracket;whiteSpace=wrap;html=1;rounded=1;fontSize=17;fillColor=none;" parent="1" vertex="1">
          <mxGeometry x="-50" y="725.25" width="20" height="200" as="geometry" />
        </mxCell>
        <mxCell id="YmlekW7UCMXkX2L6uJOz-186" value="&lt;font style=&quot;font-size: 13px;&quot;&gt;G1&lt;/font&gt;" style="whiteSpace=wrap;html=1;strokeColor=default;fillColor=none;fontSize=13;fontFamily=Lucida Console;" parent="1" vertex="1">
          <mxGeometry x="-20" y="725.25" width="70" height="40" as="geometry" />
        </mxCell>
        <mxCell id="YmlekW7UCMXkX2L6uJOz-187" value="&lt;font style=&quot;font-size: 13px;&quot;&gt;G2&lt;/font&gt;" style="whiteSpace=wrap;html=1;strokeColor=default;fillColor=none;fontSize=13;fontFamily=Lucida Console;" parent="1" vertex="1">
          <mxGeometry x="-20" y="770.25" width="70" height="40" as="geometry" />
        </mxCell>
        <mxCell id="YmlekW7UCMXkX2L6uJOz-188" value="&lt;font style=&quot;font-size: 13px;&quot;&gt;G3&lt;/font&gt;" style="whiteSpace=wrap;html=1;strokeColor=default;fillColor=none;fontSize=13;fontFamily=Lucida Console;" parent="1" vertex="1">
          <mxGeometry x="-20" y="820.25" width="70" height="40" as="geometry" />
        </mxCell>
        <mxCell id="YmlekW7UCMXkX2L6uJOz-190" value="&lt;font style=&quot;font-size: 13px;&quot;&gt;Gn&lt;/font&gt;" style="whiteSpace=wrap;html=1;strokeColor=default;fillColor=none;fontSize=13;fontFamily=Lucida Console;" parent="1" vertex="1">
          <mxGeometry x="-20" y="895.25" width="70" height="40" as="geometry" />
        </mxCell>
        <mxCell id="YmlekW7UCMXkX2L6uJOz-191" value="" style="endArrow=none;dashed=1;html=1;dashPattern=1 3;strokeWidth=2;rounded=0;fontFamily=Lucida Console;fontSize=13;entryX=0.5;entryY=1;entryDx=0;entryDy=0;exitX=0.5;exitY=0;exitDx=0;exitDy=0;" parent="1" source="YmlekW7UCMXkX2L6uJOz-190" target="YmlekW7UCMXkX2L6uJOz-188" edge="1">
          <mxGeometry width="50" height="50" relative="1" as="geometry">
            <mxPoint x="50" y="885.25" as="sourcePoint" />
            <mxPoint x="70" y="855.25" as="targetPoint" />
          </mxGeometry>
        </mxCell>
        <mxCell id="7WnJTswXpN8H8kNjKJfC-3" value="" style="group" parent="1" vertex="1" connectable="0">
          <mxGeometry x="-50" y="490" width="310" height="120" as="geometry" />
        </mxCell>
        <mxCell id="7WnJTswXpN8H8kNjKJfC-4" value="" style="shape=parallelogram;html=1;strokeWidth=2;perimeter=parallelogramPerimeter;whiteSpace=wrap;rounded=1;arcSize=12;size=0.23;" parent="7WnJTswXpN8H8kNjKJfC-3" vertex="1">
          <mxGeometry width="310" height="120" as="geometry" />
        </mxCell>
        <mxCell id="7WnJTswXpN8H8kNjKJfC-20" style="edgeStyle=none;rounded=0;orthogonalLoop=1;jettySize=auto;html=1;exitX=1;exitY=1;exitDx=0;exitDy=0;entryX=0;entryY=0.5;entryDx=0;entryDy=0;endArrow=none;endFill=0;" parent="7WnJTswXpN8H8kNjKJfC-3" source="7WnJTswXpN8H8kNjKJfC-5" target="7WnJTswXpN8H8kNjKJfC-6" edge="1">
          <mxGeometry relative="1" as="geometry" />
        </mxCell>
        <mxCell id="7WnJTswXpN8H8kNjKJfC-5" value="" style="ellipse;whiteSpace=wrap;html=1;fillColor=#e1d5e7;strokeColor=#9673a6;" parent="7WnJTswXpN8H8kNjKJfC-3" vertex="1">
          <mxGeometry x="80" y="10" width="40" height="30" as="geometry" />
        </mxCell>
        <mxCell id="7WnJTswXpN8H8kNjKJfC-24" style="edgeStyle=none;rounded=0;orthogonalLoop=1;jettySize=auto;html=1;exitX=1;exitY=1;exitDx=0;exitDy=0;entryX=0.5;entryY=0;entryDx=0;entryDy=0;endArrow=none;endFill=0;" parent="7WnJTswXpN8H8kNjKJfC-3" source="7WnJTswXpN8H8kNjKJfC-6" target="7WnJTswXpN8H8kNjKJfC-16" edge="1">
          <mxGeometry relative="1" as="geometry" />
        </mxCell>
        <mxCell id="7WnJTswXpN8H8kNjKJfC-26" style="edgeStyle=none;rounded=0;orthogonalLoop=1;jettySize=auto;html=1;exitX=1;exitY=0;exitDx=0;exitDy=0;entryX=0;entryY=0.5;entryDx=0;entryDy=0;endArrow=none;endFill=0;" parent="7WnJTswXpN8H8kNjKJfC-3" source="7WnJTswXpN8H8kNjKJfC-6" target="7WnJTswXpN8H8kNjKJfC-8" edge="1">
          <mxGeometry relative="1" as="geometry" />
        </mxCell>
        <mxCell id="7WnJTswXpN8H8kNjKJfC-6" value="" style="ellipse;whiteSpace=wrap;html=1;fillColor=#e1d5e7;strokeColor=#9673a6;" parent="7WnJTswXpN8H8kNjKJfC-3" vertex="1">
          <mxGeometry x="150" y="30" width="40" height="30" as="geometry" />
        </mxCell>
        <mxCell id="7WnJTswXpN8H8kNjKJfC-27" style="edgeStyle=none;rounded=0;orthogonalLoop=1;jettySize=auto;html=1;exitX=0.5;exitY=1;exitDx=0;exitDy=0;entryX=0.5;entryY=0;entryDx=0;entryDy=0;endArrow=none;endFill=0;" parent="7WnJTswXpN8H8kNjKJfC-3" source="7WnJTswXpN8H8kNjKJfC-8" target="7WnJTswXpN8H8kNjKJfC-13" edge="1">
          <mxGeometry relative="1" as="geometry" />
        </mxCell>
        <mxCell id="7WnJTswXpN8H8kNjKJfC-8" value="" style="ellipse;whiteSpace=wrap;html=1;fillColor=#e1d5e7;strokeColor=#9673a6;" parent="7WnJTswXpN8H8kNjKJfC-3" vertex="1">
          <mxGeometry x="210" y="10" width="40" height="30" as="geometry" />
        </mxCell>
        <mxCell id="7WnJTswXpN8H8kNjKJfC-22" style="edgeStyle=none;rounded=0;orthogonalLoop=1;jettySize=auto;html=1;exitX=1;exitY=0.5;exitDx=0;exitDy=0;entryX=0;entryY=0.5;entryDx=0;entryDy=0;endArrow=none;endFill=0;" parent="7WnJTswXpN8H8kNjKJfC-3" source="7WnJTswXpN8H8kNjKJfC-10" target="7WnJTswXpN8H8kNjKJfC-12" edge="1">
          <mxGeometry relative="1" as="geometry" />
        </mxCell>
        <mxCell id="7WnJTswXpN8H8kNjKJfC-10" value="" style="ellipse;whiteSpace=wrap;html=1;fillColor=#e1d5e7;strokeColor=#9673a6;" parent="7WnJTswXpN8H8kNjKJfC-3" vertex="1">
          <mxGeometry x="50" y="70" width="40" height="30" as="geometry" />
        </mxCell>
        <mxCell id="7WnJTswXpN8H8kNjKJfC-23" style="edgeStyle=none;rounded=0;orthogonalLoop=1;jettySize=auto;html=1;exitX=1;exitY=0.5;exitDx=0;exitDy=0;entryX=0;entryY=0.5;entryDx=0;entryDy=0;endArrow=none;endFill=0;" parent="7WnJTswXpN8H8kNjKJfC-3" source="7WnJTswXpN8H8kNjKJfC-12" target="7WnJTswXpN8H8kNjKJfC-16" edge="1">
          <mxGeometry relative="1" as="geometry" />
        </mxCell>
        <mxCell id="7WnJTswXpN8H8kNjKJfC-25" style="edgeStyle=none;rounded=0;orthogonalLoop=1;jettySize=auto;html=1;exitX=0;exitY=0;exitDx=0;exitDy=0;entryX=0.5;entryY=1;entryDx=0;entryDy=0;endArrow=none;endFill=0;" parent="7WnJTswXpN8H8kNjKJfC-3" source="7WnJTswXpN8H8kNjKJfC-12" target="7WnJTswXpN8H8kNjKJfC-5" edge="1">
          <mxGeometry relative="1" as="geometry" />
        </mxCell>
        <mxCell id="7WnJTswXpN8H8kNjKJfC-12" value="" style="ellipse;whiteSpace=wrap;html=1;fillColor=#e1d5e7;strokeColor=#9673a6;" parent="7WnJTswXpN8H8kNjKJfC-3" vertex="1">
          <mxGeometry x="110" y="70" width="40" height="30" as="geometry" />
        </mxCell>
        <mxCell id="7WnJTswXpN8H8kNjKJfC-28" style="edgeStyle=none;rounded=0;orthogonalLoop=1;jettySize=auto;html=1;exitX=0.5;exitY=1;exitDx=0;exitDy=0;entryX=1;entryY=0;entryDx=0;entryDy=0;endArrow=none;endFill=0;" parent="7WnJTswXpN8H8kNjKJfC-3" source="7WnJTswXpN8H8kNjKJfC-13" target="7WnJTswXpN8H8kNjKJfC-16" edge="1">
          <mxGeometry relative="1" as="geometry" />
        </mxCell>
        <mxCell id="7WnJTswXpN8H8kNjKJfC-13" value="" style="ellipse;whiteSpace=wrap;html=1;fillColor=#e1d5e7;strokeColor=#9673a6;" parent="7WnJTswXpN8H8kNjKJfC-3" vertex="1">
          <mxGeometry x="210" y="50" width="40" height="30" as="geometry" />
        </mxCell>
        <mxCell id="7WnJTswXpN8H8kNjKJfC-16" value="" style="ellipse;whiteSpace=wrap;html=1;fillColor=#e1d5e7;strokeColor=#9673a6;" parent="7WnJTswXpN8H8kNjKJfC-3" vertex="1">
          <mxGeometry x="180" y="80" width="40" height="30" as="geometry" />
        </mxCell>
        <mxCell id="7WnJTswXpN8H8kNjKJfC-29" value="&lt;span style=&quot;font-size: 17px;&quot;&gt;WGCN&lt;/span&gt;" style="whiteSpace=wrap;html=1;strokeColor=none;fillColor=none;" parent="7WnJTswXpN8H8kNjKJfC-3" vertex="1">
          <mxGeometry x="-80" y="30" width="120" height="40" as="geometry" />
        </mxCell>
        <mxCell id="QT9BEj15-XLcaUSbm8Tx-53" value="" style="shape=curlyBracket;whiteSpace=wrap;html=1;rounded=1;flipH=1;" vertex="1" parent="1">
          <mxGeometry x="330" y="205" width="20" height="360" as="geometry" />
        </mxCell>
        <mxCell id="QT9BEj15-XLcaUSbm8Tx-57" value="" style="shape=table;html=1;whiteSpace=wrap;startSize=0;container=1;collapsible=0;childLayout=tableLayout;fontSize=17;fillColor=#e1d5e7;strokeColor=#9673a6;" vertex="1" parent="1">
          <mxGeometry x="260" y="730.5" width="150" height="149" as="geometry" />
        </mxCell>
        <mxCell id="QT9BEj15-XLcaUSbm8Tx-58" value="" style="shape=tableRow;horizontal=0;startSize=0;swimlaneHead=0;swimlaneBody=0;top=0;left=0;bottom=0;right=0;collapsible=0;dropTarget=0;fillColor=none;points=[[0,0.5],[1,0.5]];portConstraint=eastwest;fontSize=17;" vertex="1" parent="QT9BEj15-XLcaUSbm8Tx-57">
          <mxGeometry width="150" height="20" as="geometry" />
        </mxCell>
        <mxCell id="QT9BEj15-XLcaUSbm8Tx-59" value="s1" style="shape=partialRectangle;html=1;whiteSpace=wrap;connectable=0;fillColor=none;top=0;left=0;bottom=0;right=0;overflow=hidden;fontSize=17;" vertex="1" parent="QT9BEj15-XLcaUSbm8Tx-58">
          <mxGeometry width="20" height="20" as="geometry">
            <mxRectangle width="20" height="20" as="alternateBounds" />
          </mxGeometry>
        </mxCell>
        <mxCell id="QT9BEj15-XLcaUSbm8Tx-60" value="" style="shape=partialRectangle;html=1;whiteSpace=wrap;connectable=0;fillColor=none;top=0;left=0;bottom=0;right=0;overflow=hidden;fontSize=17;" vertex="1" parent="QT9BEj15-XLcaUSbm8Tx-58">
          <mxGeometry x="20" width="20" height="20" as="geometry">
            <mxRectangle width="20" height="20" as="alternateBounds" />
          </mxGeometry>
        </mxCell>
        <mxCell id="QT9BEj15-XLcaUSbm8Tx-61" value="" style="shape=partialRectangle;html=1;whiteSpace=wrap;connectable=0;fillColor=none;top=0;left=0;bottom=0;right=0;overflow=hidden;fontSize=17;" vertex="1" parent="QT9BEj15-XLcaUSbm8Tx-58">
          <mxGeometry x="40" width="25" height="20" as="geometry">
            <mxRectangle width="25" height="20" as="alternateBounds" />
          </mxGeometry>
        </mxCell>
        <mxCell id="QT9BEj15-XLcaUSbm8Tx-62" style="shape=partialRectangle;html=1;whiteSpace=wrap;connectable=0;fillColor=none;top=0;left=0;bottom=0;right=0;overflow=hidden;fontSize=17;" vertex="1" parent="QT9BEj15-XLcaUSbm8Tx-58">
          <mxGeometry x="65" width="21" height="20" as="geometry">
            <mxRectangle width="21" height="20" as="alternateBounds" />
          </mxGeometry>
        </mxCell>
        <mxCell id="QT9BEj15-XLcaUSbm8Tx-63" style="shape=partialRectangle;html=1;whiteSpace=wrap;connectable=0;fillColor=none;top=0;left=0;bottom=0;right=0;overflow=hidden;fontSize=17;" vertex="1" parent="QT9BEj15-XLcaUSbm8Tx-58">
          <mxGeometry x="86" width="21" height="20" as="geometry">
            <mxRectangle width="21" height="20" as="alternateBounds" />
          </mxGeometry>
        </mxCell>
        <mxCell id="QT9BEj15-XLcaUSbm8Tx-64" style="shape=partialRectangle;html=1;whiteSpace=wrap;connectable=0;fillColor=none;top=0;left=0;bottom=0;right=0;overflow=hidden;fontSize=17;" vertex="1" parent="QT9BEj15-XLcaUSbm8Tx-58">
          <mxGeometry x="107" width="22" height="20" as="geometry">
            <mxRectangle width="22" height="20" as="alternateBounds" />
          </mxGeometry>
        </mxCell>
        <mxCell id="QT9BEj15-XLcaUSbm8Tx-65" style="shape=partialRectangle;html=1;whiteSpace=wrap;connectable=0;fillColor=none;top=0;left=0;bottom=0;right=0;overflow=hidden;fontSize=17;" vertex="1" parent="QT9BEj15-XLcaUSbm8Tx-58">
          <mxGeometry x="129" width="21" height="20" as="geometry">
            <mxRectangle width="21" height="20" as="alternateBounds" />
          </mxGeometry>
        </mxCell>
        <mxCell id="QT9BEj15-XLcaUSbm8Tx-66" value="" style="shape=tableRow;horizontal=0;startSize=0;swimlaneHead=0;swimlaneBody=0;top=0;left=0;bottom=0;right=0;collapsible=0;dropTarget=0;fillColor=none;points=[[0,0.5],[1,0.5]];portConstraint=eastwest;fontSize=17;" vertex="1" parent="QT9BEj15-XLcaUSbm8Tx-57">
          <mxGeometry y="20" width="150" height="23" as="geometry" />
        </mxCell>
        <mxCell id="QT9BEj15-XLcaUSbm8Tx-67" style="shape=partialRectangle;html=1;whiteSpace=wrap;connectable=0;fillColor=none;top=0;left=0;bottom=0;right=0;overflow=hidden;fontSize=17;" vertex="1" parent="QT9BEj15-XLcaUSbm8Tx-66">
          <mxGeometry width="20" height="23" as="geometry">
            <mxRectangle width="20" height="23" as="alternateBounds" />
          </mxGeometry>
        </mxCell>
        <mxCell id="QT9BEj15-XLcaUSbm8Tx-68" style="shape=partialRectangle;html=1;whiteSpace=wrap;connectable=0;fillColor=none;top=0;left=0;bottom=0;right=0;overflow=hidden;fontSize=17;" vertex="1" parent="QT9BEj15-XLcaUSbm8Tx-66">
          <mxGeometry x="20" width="20" height="23" as="geometry">
            <mxRectangle width="20" height="23" as="alternateBounds" />
          </mxGeometry>
        </mxCell>
        <mxCell id="QT9BEj15-XLcaUSbm8Tx-69" value="" style="shape=partialRectangle;html=1;whiteSpace=wrap;connectable=0;fillColor=none;top=0;left=0;bottom=0;right=0;overflow=hidden;fontSize=17;" vertex="1" parent="QT9BEj15-XLcaUSbm8Tx-66">
          <mxGeometry x="40" width="25" height="23" as="geometry">
            <mxRectangle width="25" height="23" as="alternateBounds" />
          </mxGeometry>
        </mxCell>
        <mxCell id="QT9BEj15-XLcaUSbm8Tx-70" style="shape=partialRectangle;html=1;whiteSpace=wrap;connectable=0;fillColor=none;top=0;left=0;bottom=0;right=0;overflow=hidden;fontSize=17;" vertex="1" parent="QT9BEj15-XLcaUSbm8Tx-66">
          <mxGeometry x="65" width="21" height="23" as="geometry">
            <mxRectangle width="21" height="23" as="alternateBounds" />
          </mxGeometry>
        </mxCell>
        <mxCell id="QT9BEj15-XLcaUSbm8Tx-71" style="shape=partialRectangle;html=1;whiteSpace=wrap;connectable=0;fillColor=none;top=0;left=0;bottom=0;right=0;overflow=hidden;fontSize=17;" vertex="1" parent="QT9BEj15-XLcaUSbm8Tx-66">
          <mxGeometry x="86" width="21" height="23" as="geometry">
            <mxRectangle width="21" height="23" as="alternateBounds" />
          </mxGeometry>
        </mxCell>
        <mxCell id="QT9BEj15-XLcaUSbm8Tx-72" style="shape=partialRectangle;html=1;whiteSpace=wrap;connectable=0;fillColor=none;top=0;left=0;bottom=0;right=0;overflow=hidden;fontSize=17;" vertex="1" parent="QT9BEj15-XLcaUSbm8Tx-66">
          <mxGeometry x="107" width="22" height="23" as="geometry">
            <mxRectangle width="22" height="23" as="alternateBounds" />
          </mxGeometry>
        </mxCell>
        <mxCell id="QT9BEj15-XLcaUSbm8Tx-73" style="shape=partialRectangle;html=1;whiteSpace=wrap;connectable=0;fillColor=none;top=0;left=0;bottom=0;right=0;overflow=hidden;fontSize=17;" vertex="1" parent="QT9BEj15-XLcaUSbm8Tx-66">
          <mxGeometry x="129" width="21" height="23" as="geometry">
            <mxRectangle width="21" height="23" as="alternateBounds" />
          </mxGeometry>
        </mxCell>
        <mxCell id="QT9BEj15-XLcaUSbm8Tx-74" value="" style="shape=tableRow;horizontal=0;startSize=0;swimlaneHead=0;swimlaneBody=0;top=0;left=0;bottom=0;right=0;collapsible=0;dropTarget=0;fillColor=none;points=[[0,0.5],[1,0.5]];portConstraint=eastwest;fontSize=17;" vertex="1" parent="QT9BEj15-XLcaUSbm8Tx-57">
          <mxGeometry y="43" width="150" height="21" as="geometry" />
        </mxCell>
        <mxCell id="QT9BEj15-XLcaUSbm8Tx-75" style="shape=partialRectangle;html=1;whiteSpace=wrap;connectable=0;fillColor=none;top=0;left=0;bottom=0;right=0;overflow=hidden;fontSize=17;" vertex="1" parent="QT9BEj15-XLcaUSbm8Tx-74">
          <mxGeometry width="20" height="21" as="geometry">
            <mxRectangle width="20" height="21" as="alternateBounds" />
          </mxGeometry>
        </mxCell>
        <mxCell id="QT9BEj15-XLcaUSbm8Tx-76" style="shape=partialRectangle;html=1;whiteSpace=wrap;connectable=0;fillColor=none;top=0;left=0;bottom=0;right=0;overflow=hidden;fontSize=17;" vertex="1" parent="QT9BEj15-XLcaUSbm8Tx-74">
          <mxGeometry x="20" width="20" height="21" as="geometry">
            <mxRectangle width="20" height="21" as="alternateBounds" />
          </mxGeometry>
        </mxCell>
        <mxCell id="QT9BEj15-XLcaUSbm8Tx-77" value="" style="shape=partialRectangle;html=1;whiteSpace=wrap;connectable=0;fillColor=none;top=0;left=0;bottom=0;right=0;overflow=hidden;fontSize=17;" vertex="1" parent="QT9BEj15-XLcaUSbm8Tx-74">
          <mxGeometry x="40" width="25" height="21" as="geometry">
            <mxRectangle width="25" height="21" as="alternateBounds" />
          </mxGeometry>
        </mxCell>
        <mxCell id="QT9BEj15-XLcaUSbm8Tx-78" style="shape=partialRectangle;html=1;whiteSpace=wrap;connectable=0;fillColor=none;top=0;left=0;bottom=0;right=0;overflow=hidden;fontSize=17;" vertex="1" parent="QT9BEj15-XLcaUSbm8Tx-74">
          <mxGeometry x="65" width="21" height="21" as="geometry">
            <mxRectangle width="21" height="21" as="alternateBounds" />
          </mxGeometry>
        </mxCell>
        <mxCell id="QT9BEj15-XLcaUSbm8Tx-79" style="shape=partialRectangle;html=1;whiteSpace=wrap;connectable=0;fillColor=none;top=0;left=0;bottom=0;right=0;overflow=hidden;fontSize=17;" vertex="1" parent="QT9BEj15-XLcaUSbm8Tx-74">
          <mxGeometry x="86" width="21" height="21" as="geometry">
            <mxRectangle width="21" height="21" as="alternateBounds" />
          </mxGeometry>
        </mxCell>
        <mxCell id="QT9BEj15-XLcaUSbm8Tx-80" style="shape=partialRectangle;html=1;whiteSpace=wrap;connectable=0;fillColor=none;top=0;left=0;bottom=0;right=0;overflow=hidden;fontSize=17;" vertex="1" parent="QT9BEj15-XLcaUSbm8Tx-74">
          <mxGeometry x="107" width="22" height="21" as="geometry">
            <mxRectangle width="22" height="21" as="alternateBounds" />
          </mxGeometry>
        </mxCell>
        <mxCell id="QT9BEj15-XLcaUSbm8Tx-81" style="shape=partialRectangle;html=1;whiteSpace=wrap;connectable=0;fillColor=none;top=0;left=0;bottom=0;right=0;overflow=hidden;fontSize=17;" vertex="1" parent="QT9BEj15-XLcaUSbm8Tx-74">
          <mxGeometry x="129" width="21" height="21" as="geometry">
            <mxRectangle width="21" height="21" as="alternateBounds" />
          </mxGeometry>
        </mxCell>
        <mxCell id="QT9BEj15-XLcaUSbm8Tx-82" style="shape=tableRow;horizontal=0;startSize=0;swimlaneHead=0;swimlaneBody=0;top=0;left=0;bottom=0;right=0;collapsible=0;dropTarget=0;fillColor=none;points=[[0,0.5],[1,0.5]];portConstraint=eastwest;fontSize=17;" vertex="1" parent="QT9BEj15-XLcaUSbm8Tx-57">
          <mxGeometry y="64" width="150" height="21" as="geometry" />
        </mxCell>
        <mxCell id="QT9BEj15-XLcaUSbm8Tx-83" style="shape=partialRectangle;html=1;whiteSpace=wrap;connectable=0;fillColor=none;top=0;left=0;bottom=0;right=0;overflow=hidden;fontSize=17;" vertex="1" parent="QT9BEj15-XLcaUSbm8Tx-82">
          <mxGeometry width="20" height="21" as="geometry">
            <mxRectangle width="20" height="21" as="alternateBounds" />
          </mxGeometry>
        </mxCell>
        <mxCell id="QT9BEj15-XLcaUSbm8Tx-84" style="shape=partialRectangle;html=1;whiteSpace=wrap;connectable=0;fillColor=none;top=0;left=0;bottom=0;right=0;overflow=hidden;fontSize=17;" vertex="1" parent="QT9BEj15-XLcaUSbm8Tx-82">
          <mxGeometry x="20" width="20" height="21" as="geometry">
            <mxRectangle width="20" height="21" as="alternateBounds" />
          </mxGeometry>
        </mxCell>
        <mxCell id="QT9BEj15-XLcaUSbm8Tx-85" style="shape=partialRectangle;html=1;whiteSpace=wrap;connectable=0;fillColor=none;top=0;left=0;bottom=0;right=0;overflow=hidden;fontSize=17;" vertex="1" parent="QT9BEj15-XLcaUSbm8Tx-82">
          <mxGeometry x="40" width="25" height="21" as="geometry">
            <mxRectangle width="25" height="21" as="alternateBounds" />
          </mxGeometry>
        </mxCell>
        <mxCell id="QT9BEj15-XLcaUSbm8Tx-86" style="shape=partialRectangle;html=1;whiteSpace=wrap;connectable=0;fillColor=none;top=0;left=0;bottom=0;right=0;overflow=hidden;fontSize=17;" vertex="1" parent="QT9BEj15-XLcaUSbm8Tx-82">
          <mxGeometry x="65" width="21" height="21" as="geometry">
            <mxRectangle width="21" height="21" as="alternateBounds" />
          </mxGeometry>
        </mxCell>
        <mxCell id="QT9BEj15-XLcaUSbm8Tx-87" style="shape=partialRectangle;html=1;whiteSpace=wrap;connectable=0;fillColor=none;top=0;left=0;bottom=0;right=0;overflow=hidden;fontSize=17;" vertex="1" parent="QT9BEj15-XLcaUSbm8Tx-82">
          <mxGeometry x="86" width="21" height="21" as="geometry">
            <mxRectangle width="21" height="21" as="alternateBounds" />
          </mxGeometry>
        </mxCell>
        <mxCell id="QT9BEj15-XLcaUSbm8Tx-88" style="shape=partialRectangle;html=1;whiteSpace=wrap;connectable=0;fillColor=none;top=0;left=0;bottom=0;right=0;overflow=hidden;fontSize=17;" vertex="1" parent="QT9BEj15-XLcaUSbm8Tx-82">
          <mxGeometry x="107" width="22" height="21" as="geometry">
            <mxRectangle width="22" height="21" as="alternateBounds" />
          </mxGeometry>
        </mxCell>
        <mxCell id="QT9BEj15-XLcaUSbm8Tx-89" style="shape=partialRectangle;html=1;whiteSpace=wrap;connectable=0;fillColor=none;top=0;left=0;bottom=0;right=0;overflow=hidden;fontSize=17;" vertex="1" parent="QT9BEj15-XLcaUSbm8Tx-82">
          <mxGeometry x="129" width="21" height="21" as="geometry">
            <mxRectangle width="21" height="21" as="alternateBounds" />
          </mxGeometry>
        </mxCell>
        <mxCell id="QT9BEj15-XLcaUSbm8Tx-90" style="shape=tableRow;horizontal=0;startSize=0;swimlaneHead=0;swimlaneBody=0;top=0;left=0;bottom=0;right=0;collapsible=0;dropTarget=0;fillColor=none;points=[[0,0.5],[1,0.5]];portConstraint=eastwest;fontSize=17;" vertex="1" parent="QT9BEj15-XLcaUSbm8Tx-57">
          <mxGeometry y="85" width="150" height="21" as="geometry" />
        </mxCell>
        <mxCell id="QT9BEj15-XLcaUSbm8Tx-91" style="shape=partialRectangle;html=1;whiteSpace=wrap;connectable=0;fillColor=none;top=0;left=0;bottom=0;right=0;overflow=hidden;fontSize=17;" vertex="1" parent="QT9BEj15-XLcaUSbm8Tx-90">
          <mxGeometry width="20" height="21" as="geometry">
            <mxRectangle width="20" height="21" as="alternateBounds" />
          </mxGeometry>
        </mxCell>
        <mxCell id="QT9BEj15-XLcaUSbm8Tx-92" style="shape=partialRectangle;html=1;whiteSpace=wrap;connectable=0;fillColor=none;top=0;left=0;bottom=0;right=0;overflow=hidden;fontSize=17;" vertex="1" parent="QT9BEj15-XLcaUSbm8Tx-90">
          <mxGeometry x="20" width="20" height="21" as="geometry">
            <mxRectangle width="20" height="21" as="alternateBounds" />
          </mxGeometry>
        </mxCell>
        <mxCell id="QT9BEj15-XLcaUSbm8Tx-93" style="shape=partialRectangle;html=1;whiteSpace=wrap;connectable=0;fillColor=none;top=0;left=0;bottom=0;right=0;overflow=hidden;fontSize=17;" vertex="1" parent="QT9BEj15-XLcaUSbm8Tx-90">
          <mxGeometry x="40" width="25" height="21" as="geometry">
            <mxRectangle width="25" height="21" as="alternateBounds" />
          </mxGeometry>
        </mxCell>
        <mxCell id="QT9BEj15-XLcaUSbm8Tx-94" style="shape=partialRectangle;html=1;whiteSpace=wrap;connectable=0;fillColor=none;top=0;left=0;bottom=0;right=0;overflow=hidden;fontSize=17;" vertex="1" parent="QT9BEj15-XLcaUSbm8Tx-90">
          <mxGeometry x="65" width="21" height="21" as="geometry">
            <mxRectangle width="21" height="21" as="alternateBounds" />
          </mxGeometry>
        </mxCell>
        <mxCell id="QT9BEj15-XLcaUSbm8Tx-95" style="shape=partialRectangle;html=1;whiteSpace=wrap;connectable=0;fillColor=none;top=0;left=0;bottom=0;right=0;overflow=hidden;fontSize=17;" vertex="1" parent="QT9BEj15-XLcaUSbm8Tx-90">
          <mxGeometry x="86" width="21" height="21" as="geometry">
            <mxRectangle width="21" height="21" as="alternateBounds" />
          </mxGeometry>
        </mxCell>
        <mxCell id="QT9BEj15-XLcaUSbm8Tx-96" style="shape=partialRectangle;html=1;whiteSpace=wrap;connectable=0;fillColor=none;top=0;left=0;bottom=0;right=0;overflow=hidden;fontSize=17;" vertex="1" parent="QT9BEj15-XLcaUSbm8Tx-90">
          <mxGeometry x="107" width="22" height="21" as="geometry">
            <mxRectangle width="22" height="21" as="alternateBounds" />
          </mxGeometry>
        </mxCell>
        <mxCell id="QT9BEj15-XLcaUSbm8Tx-97" style="shape=partialRectangle;html=1;whiteSpace=wrap;connectable=0;fillColor=none;top=0;left=0;bottom=0;right=0;overflow=hidden;fontSize=17;" vertex="1" parent="QT9BEj15-XLcaUSbm8Tx-90">
          <mxGeometry x="129" width="21" height="21" as="geometry">
            <mxRectangle width="21" height="21" as="alternateBounds" />
          </mxGeometry>
        </mxCell>
        <mxCell id="QT9BEj15-XLcaUSbm8Tx-98" style="shape=tableRow;horizontal=0;startSize=0;swimlaneHead=0;swimlaneBody=0;top=0;left=0;bottom=0;right=0;collapsible=0;dropTarget=0;fillColor=none;points=[[0,0.5],[1,0.5]];portConstraint=eastwest;fontSize=17;" vertex="1" parent="QT9BEj15-XLcaUSbm8Tx-57">
          <mxGeometry y="106" width="150" height="22" as="geometry" />
        </mxCell>
        <mxCell id="QT9BEj15-XLcaUSbm8Tx-99" style="shape=partialRectangle;html=1;whiteSpace=wrap;connectable=0;fillColor=none;top=0;left=0;bottom=0;right=0;overflow=hidden;fontSize=17;" vertex="1" parent="QT9BEj15-XLcaUSbm8Tx-98">
          <mxGeometry width="20" height="22" as="geometry">
            <mxRectangle width="20" height="22" as="alternateBounds" />
          </mxGeometry>
        </mxCell>
        <mxCell id="QT9BEj15-XLcaUSbm8Tx-100" style="shape=partialRectangle;html=1;whiteSpace=wrap;connectable=0;fillColor=none;top=0;left=0;bottom=0;right=0;overflow=hidden;fontSize=17;" vertex="1" parent="QT9BEj15-XLcaUSbm8Tx-98">
          <mxGeometry x="20" width="20" height="22" as="geometry">
            <mxRectangle width="20" height="22" as="alternateBounds" />
          </mxGeometry>
        </mxCell>
        <mxCell id="QT9BEj15-XLcaUSbm8Tx-101" style="shape=partialRectangle;html=1;whiteSpace=wrap;connectable=0;fillColor=none;top=0;left=0;bottom=0;right=0;overflow=hidden;fontSize=17;" vertex="1" parent="QT9BEj15-XLcaUSbm8Tx-98">
          <mxGeometry x="40" width="25" height="22" as="geometry">
            <mxRectangle width="25" height="22" as="alternateBounds" />
          </mxGeometry>
        </mxCell>
        <mxCell id="QT9BEj15-XLcaUSbm8Tx-102" style="shape=partialRectangle;html=1;whiteSpace=wrap;connectable=0;fillColor=none;top=0;left=0;bottom=0;right=0;overflow=hidden;fontSize=17;" vertex="1" parent="QT9BEj15-XLcaUSbm8Tx-98">
          <mxGeometry x="65" width="21" height="22" as="geometry">
            <mxRectangle width="21" height="22" as="alternateBounds" />
          </mxGeometry>
        </mxCell>
        <mxCell id="QT9BEj15-XLcaUSbm8Tx-103" style="shape=partialRectangle;html=1;whiteSpace=wrap;connectable=0;fillColor=none;top=0;left=0;bottom=0;right=0;overflow=hidden;fontSize=17;" vertex="1" parent="QT9BEj15-XLcaUSbm8Tx-98">
          <mxGeometry x="86" width="21" height="22" as="geometry">
            <mxRectangle width="21" height="22" as="alternateBounds" />
          </mxGeometry>
        </mxCell>
        <mxCell id="QT9BEj15-XLcaUSbm8Tx-104" style="shape=partialRectangle;html=1;whiteSpace=wrap;connectable=0;fillColor=none;top=0;left=0;bottom=0;right=0;overflow=hidden;fontSize=17;" vertex="1" parent="QT9BEj15-XLcaUSbm8Tx-98">
          <mxGeometry x="107" width="22" height="22" as="geometry">
            <mxRectangle width="22" height="22" as="alternateBounds" />
          </mxGeometry>
        </mxCell>
        <mxCell id="QT9BEj15-XLcaUSbm8Tx-105" style="shape=partialRectangle;html=1;whiteSpace=wrap;connectable=0;fillColor=none;top=0;left=0;bottom=0;right=0;overflow=hidden;fontSize=17;" vertex="1" parent="QT9BEj15-XLcaUSbm8Tx-98">
          <mxGeometry x="129" width="21" height="22" as="geometry">
            <mxRectangle width="21" height="22" as="alternateBounds" />
          </mxGeometry>
        </mxCell>
        <mxCell id="QT9BEj15-XLcaUSbm8Tx-106" style="shape=tableRow;horizontal=0;startSize=0;swimlaneHead=0;swimlaneBody=0;top=0;left=0;bottom=0;right=0;collapsible=0;dropTarget=0;fillColor=none;points=[[0,0.5],[1,0.5]];portConstraint=eastwest;fontSize=17;" vertex="1" parent="QT9BEj15-XLcaUSbm8Tx-57">
          <mxGeometry y="128" width="150" height="21" as="geometry" />
        </mxCell>
        <mxCell id="QT9BEj15-XLcaUSbm8Tx-107" style="shape=partialRectangle;html=1;whiteSpace=wrap;connectable=0;fillColor=none;top=0;left=0;bottom=0;right=0;overflow=hidden;fontSize=17;" vertex="1" parent="QT9BEj15-XLcaUSbm8Tx-106">
          <mxGeometry width="20" height="21" as="geometry">
            <mxRectangle width="20" height="21" as="alternateBounds" />
          </mxGeometry>
        </mxCell>
        <mxCell id="QT9BEj15-XLcaUSbm8Tx-108" style="shape=partialRectangle;html=1;whiteSpace=wrap;connectable=0;fillColor=none;top=0;left=0;bottom=0;right=0;overflow=hidden;fontSize=17;" vertex="1" parent="QT9BEj15-XLcaUSbm8Tx-106">
          <mxGeometry x="20" width="20" height="21" as="geometry">
            <mxRectangle width="20" height="21" as="alternateBounds" />
          </mxGeometry>
        </mxCell>
        <mxCell id="QT9BEj15-XLcaUSbm8Tx-109" style="shape=partialRectangle;html=1;whiteSpace=wrap;connectable=0;fillColor=none;top=0;left=0;bottom=0;right=0;overflow=hidden;fontSize=17;" vertex="1" parent="QT9BEj15-XLcaUSbm8Tx-106">
          <mxGeometry x="40" width="25" height="21" as="geometry">
            <mxRectangle width="25" height="21" as="alternateBounds" />
          </mxGeometry>
        </mxCell>
        <mxCell id="QT9BEj15-XLcaUSbm8Tx-110" style="shape=partialRectangle;html=1;whiteSpace=wrap;connectable=0;fillColor=none;top=0;left=0;bottom=0;right=0;overflow=hidden;fontSize=17;" vertex="1" parent="QT9BEj15-XLcaUSbm8Tx-106">
          <mxGeometry x="65" width="21" height="21" as="geometry">
            <mxRectangle width="21" height="21" as="alternateBounds" />
          </mxGeometry>
        </mxCell>
        <mxCell id="QT9BEj15-XLcaUSbm8Tx-111" style="shape=partialRectangle;html=1;whiteSpace=wrap;connectable=0;fillColor=none;top=0;left=0;bottom=0;right=0;overflow=hidden;fontSize=17;" vertex="1" parent="QT9BEj15-XLcaUSbm8Tx-106">
          <mxGeometry x="86" width="21" height="21" as="geometry">
            <mxRectangle width="21" height="21" as="alternateBounds" />
          </mxGeometry>
        </mxCell>
        <mxCell id="QT9BEj15-XLcaUSbm8Tx-112" style="shape=partialRectangle;html=1;whiteSpace=wrap;connectable=0;fillColor=none;top=0;left=0;bottom=0;right=0;overflow=hidden;fontSize=17;" vertex="1" parent="QT9BEj15-XLcaUSbm8Tx-106">
          <mxGeometry x="107" width="22" height="21" as="geometry">
            <mxRectangle width="22" height="21" as="alternateBounds" />
          </mxGeometry>
        </mxCell>
        <mxCell id="QT9BEj15-XLcaUSbm8Tx-113" value="sn" style="shape=partialRectangle;html=1;whiteSpace=wrap;connectable=0;fillColor=none;top=0;left=0;bottom=0;right=0;overflow=hidden;fontSize=17;" vertex="1" parent="QT9BEj15-XLcaUSbm8Tx-106">
          <mxGeometry x="129" width="21" height="21" as="geometry">
            <mxRectangle width="21" height="21" as="alternateBounds" />
          </mxGeometry>
        </mxCell>
        <mxCell id="QT9BEj15-XLcaUSbm8Tx-115" value="s&lt;font style=&quot;font-size: 6px;&quot;&gt;n&lt;/font&gt;" style="rounded=0;whiteSpace=wrap;html=1;fillColor=#e1d5e7;strokeColor=#9673a6;" vertex="1" parent="1">
          <mxGeometry x="530" y="853.5" width="20" height="19.5" as="geometry" />
        </mxCell>
        <mxCell id="QT9BEj15-XLcaUSbm8Tx-117" value="s3" style="rounded=0;whiteSpace=wrap;html=1;fillColor=#e1d5e7;strokeColor=#9673a6;" vertex="1" parent="1">
          <mxGeometry x="530" y="788.25" width="20" height="19.5" as="geometry" />
        </mxCell>
        <mxCell id="QT9BEj15-XLcaUSbm8Tx-118" value="s2" style="rounded=0;whiteSpace=wrap;html=1;fillColor=#e1d5e7;strokeColor=#9673a6;" vertex="1" parent="1">
          <mxGeometry x="530" y="758.5" width="20" height="19.5" as="geometry" />
        </mxCell>
        <mxCell id="QT9BEj15-XLcaUSbm8Tx-119" value="s1" style="rounded=0;whiteSpace=wrap;html=1;fillColor=#e1d5e7;strokeColor=#9673a6;" vertex="1" parent="1">
          <mxGeometry x="530" y="730.5" width="20" height="19.5" as="geometry" />
        </mxCell>
        <mxCell id="QT9BEj15-XLcaUSbm8Tx-122" value="" style="endArrow=none;dashed=1;html=1;dashPattern=1 3;strokeWidth=2;rounded=0;fontFamily=Lucida Console;fontSize=13;entryX=0.5;entryY=1;entryDx=0;entryDy=0;" edge="1" parent="1">
          <mxGeometry width="50" height="50" relative="1" as="geometry">
            <mxPoint x="540" y="840.25" as="sourcePoint" />
            <mxPoint x="539.75" y="818" as="targetPoint" />
          </mxGeometry>
        </mxCell>
        <mxCell id="QT9BEj15-XLcaUSbm8Tx-123" value="" style="shape=curlyBracket;whiteSpace=wrap;html=1;rounded=1;fontSize=17;fillColor=none;" vertex="1" parent="1">
          <mxGeometry x="510" y="740.5699999999999" width="20" height="124.87" as="geometry" />
        </mxCell>
        <mxCell id="QT9BEj15-XLcaUSbm8Tx-125" value="" style="endArrow=classic;dashed=1;html=1;rounded=0;fontSize=6;endFill=1;" edge="1" parent="1">
          <mxGeometry width="50" height="50" relative="1" as="geometry">
            <mxPoint x="499.19999999999993" y="805.01" as="sourcePoint" />
            <mxPoint x="429.2" y="804.75" as="targetPoint" />
          </mxGeometry>
        </mxCell>
        <mxCell id="QT9BEj15-XLcaUSbm8Tx-126" value="&lt;font style=&quot;font-size: 17px;&quot;&gt;Initial Score&lt;/font&gt;" style="whiteSpace=wrap;html=1;strokeColor=none;fillColor=none;fontStyle=1" vertex="1" parent="1">
          <mxGeometry x="418.4" y="767.75" width="91.6" height="32.25" as="geometry" />
        </mxCell>
        <mxCell id="QT9BEj15-XLcaUSbm8Tx-127" value="" style="endArrow=none;dashed=1;html=1;rounded=0;fontSize=6;exitX=0.859;exitY=0.005;exitDx=0;exitDy=0;exitPerimeter=0;" edge="1" parent="1" source="QT9BEj15-XLcaUSbm8Tx-106">
          <mxGeometry width="50" height="50" relative="1" as="geometry">
            <mxPoint x="320" y="830" as="sourcePoint" />
            <mxPoint x="280" y="750" as="targetPoint" />
          </mxGeometry>
        </mxCell>
        <mxCell id="QT9BEj15-XLcaUSbm8Tx-128" value="" style="rounded=1;whiteSpace=wrap;html=1;fontFamily=Lucida Console;fontSize=13;fillColor=none;dashed=1;" vertex="1" parent="1">
          <mxGeometry x="230" y="710" width="340" height="190" as="geometry" />
        </mxCell>
        <mxCell id="QT9BEj15-XLcaUSbm8Tx-130" value="" style="shape=flexArrow;endArrow=classic;html=1;rounded=0;" edge="1" parent="1">
          <mxGeometry width="50" height="50" relative="1" as="geometry">
            <mxPoint x="670" y="802.95" as="sourcePoint" />
            <mxPoint x="580" y="802.48" as="targetPoint" />
          </mxGeometry>
        </mxCell>
        <mxCell id="QT9BEj15-XLcaUSbm8Tx-135" value="" style="group" vertex="1" connectable="0" parent="1">
          <mxGeometry x="-460" y="414.75" width="245" height="310.5" as="geometry" />
        </mxCell>
        <mxCell id="QT9BEj15-XLcaUSbm8Tx-47" value="" style="group" vertex="1" connectable="0" parent="QT9BEj15-XLcaUSbm8Tx-135">
          <mxGeometry x="10" width="235" height="250.5" as="geometry" />
        </mxCell>
        <mxCell id="QT9BEj15-XLcaUSbm8Tx-6" value="Sample 2" style="shape=umlActor;verticalLabelPosition=bottom;verticalAlign=top;html=1;outlineConnect=0;" vertex="1" parent="QT9BEj15-XLcaUSbm8Tx-47">
          <mxGeometry y="67.5" width="20.86092715231788" height="45" as="geometry" />
        </mxCell>
        <mxCell id="QT9BEj15-XLcaUSbm8Tx-7" value="Sample m" style="shape=umlActor;verticalLabelPosition=bottom;verticalAlign=top;html=1;outlineConnect=0;" vertex="1" parent="QT9BEj15-XLcaUSbm8Tx-47">
          <mxGeometry y="165" width="20.86092715231788" height="45" as="geometry" />
        </mxCell>
        <mxCell id="QT9BEj15-XLcaUSbm8Tx-8" value="" style="endArrow=none;dashed=1;html=1;dashPattern=1 3;strokeWidth=2;rounded=0;" edge="1" parent="QT9BEj15-XLcaUSbm8Tx-47">
          <mxGeometry width="50" height="50" relative="1" as="geometry">
            <mxPoint x="10.221854304635793" y="157.5" as="sourcePoint" />
            <mxPoint x="10.221854304635793" y="135" as="targetPoint" />
          </mxGeometry>
        </mxCell>
        <mxCell id="QT9BEj15-XLcaUSbm8Tx-43" value="Sample 1" style="shape=umlActor;verticalLabelPosition=bottom;verticalAlign=top;html=1;outlineConnect=0;" vertex="1" parent="QT9BEj15-XLcaUSbm8Tx-47">
          <mxGeometry width="20.86092715231788" height="45" as="geometry" />
        </mxCell>
        <mxCell id="QT9BEj15-XLcaUSbm8Tx-44" value="" style="rounded=1;whiteSpace=wrap;html=1;fillColor=#f5f5f5;fontColor=#333333;strokeColor=#666666;" vertex="1" parent="QT9BEj15-XLcaUSbm8Tx-47">
          <mxGeometry x="36.15894039735099" y="15" width="173.841059602649" height="15" as="geometry" />
        </mxCell>
        <mxCell id="QT9BEj15-XLcaUSbm8Tx-45" value="" style="rounded=1;whiteSpace=wrap;html=1;fillColor=#f5f5f5;fontColor=#333333;strokeColor=#666666;" vertex="1" parent="QT9BEj15-XLcaUSbm8Tx-47">
          <mxGeometry x="36.15894039735099" y="85.5" width="173.841059602649" height="15" as="geometry" />
        </mxCell>
        <mxCell id="QT9BEj15-XLcaUSbm8Tx-46" value="" style="rounded=1;whiteSpace=wrap;html=1;fillColor=#f5f5f5;fontColor=#333333;strokeColor=#666666;" vertex="1" parent="QT9BEj15-XLcaUSbm8Tx-47">
          <mxGeometry x="36.15894039735099" y="187.875" width="173.841059602649" height="15" as="geometry" />
        </mxCell>
        <mxCell id="YmlekW7UCMXkX2L6uJOz-205" value="" style="rounded=1;whiteSpace=wrap;html=1;fontFamily=Lucida Console;fontSize=13;fillColor=none;dashed=1;" parent="QT9BEj15-XLcaUSbm8Tx-47" vertex="1">
          <mxGeometry x="-25" y="-29.5" width="260" height="280" as="geometry" />
        </mxCell>
        <mxCell id="QT9BEj15-XLcaUSbm8Tx-49" value="&lt;span style=&quot;color: rgb(51, 51, 51); font-family: &amp;quot;Microsoft YaHei&amp;quot;, 微软雅黑, ff-yoga-web-pro, &amp;quot;Georgia,serif&amp;quot;, STXihei, 华文细黑, &amp;quot;Helvetica Neue&amp;quot;, &amp;quot;IBM Plex Mono&amp;quot;, &amp;quot;Space Grotesk&amp;quot;, &amp;quot;Roboto Slab&amp;quot;, &amp;quot;sans-serif&amp;quot;, Helvetica, Arial, &amp;quot;sans-serif&amp;quot;, &amp;quot;serif&amp;quot;; font-size: 16px; text-align: left; background-color: rgb(255, 255, 255);&quot;&gt;GSE&lt;br&gt;&lt;/span&gt;" style="whiteSpace=wrap;html=1;strokeColor=none;fillColor=none;fontStyle=1" vertex="1" parent="QT9BEj15-XLcaUSbm8Tx-135">
          <mxGeometry y="250.5" width="220" height="40" as="geometry" />
        </mxCell>
        <mxCell id="QT9BEj15-XLcaUSbm8Tx-136" value="" style="endArrow=none;dashed=1;html=1;rounded=0;fontSize=6;" edge="1" parent="1">
          <mxGeometry width="50" height="50" relative="1" as="geometry">
            <mxPoint x="780" y="810" as="sourcePoint" />
            <mxPoint x="830" y="760" as="targetPoint" />
          </mxGeometry>
        </mxCell>
        <mxCell id="QT9BEj15-XLcaUSbm8Tx-137" value="" style="endArrow=none;dashed=1;html=1;rounded=0;fontSize=6;" edge="1" parent="1">
          <mxGeometry width="50" height="50" relative="1" as="geometry">
            <mxPoint x="780" y="810" as="sourcePoint" />
            <mxPoint x="830" y="760" as="targetPoint" />
          </mxGeometry>
        </mxCell>
        <mxCell id="QT9BEj15-XLcaUSbm8Tx-138" value="" style="endArrow=classicThin;dashed=1;html=1;rounded=0;fontSize=6;endFill=1;" edge="1" parent="1">
          <mxGeometry width="50" height="50" relative="1" as="geometry">
            <mxPoint x="-180" y="539.5" as="sourcePoint" />
            <mxPoint x="-110" y="539.5" as="targetPoint" />
          </mxGeometry>
        </mxCell>
        <mxCell id="QT9BEj15-XLcaUSbm8Tx-139" value="" style="shape=flexArrow;endArrow=classic;html=1;rounded=0;" edge="1" parent="1">
          <mxGeometry width="50" height="50" relative="1" as="geometry">
            <mxPoint x="-85.00000000000045" y="820.25" as="sourcePoint" />
            <mxPoint x="-215.00000000000045" y="820.25" as="targetPoint" />
          </mxGeometry>
        </mxCell>
        <mxCell id="QT9BEj15-XLcaUSbm8Tx-141" value="&lt;font style=&quot;font-size: 17px;&quot;&gt;Downstream Task&lt;br&gt;Such as Sample Classification&lt;br&gt;&lt;/font&gt;" style="whiteSpace=wrap;html=1;strokeColor=none;fillColor=none;fontStyle=1;align=left;" vertex="1" parent="1">
          <mxGeometry x="-400" y="794.25" width="155" height="40" as="geometry" />
        </mxCell>
      </root>
    </mxGraphModel>
  </diagram>
</mxfile>
